<?xml version="1.0" encoding="UTF-8" standalone="no"?>
<svg width="2409.45px" height="822.047px" viewBox="0 0 2409.45 822.047"
 xmlns="http://www.w3.org/2000/svg" xmlns:xlink="http://www.w3.org/1999/xlink" version="1.2" baseProfile="tiny">
<title>Periode-Satz (1)</title>
<desc>Generated by MuseScore 3.6.2</desc>
<polyline class="StaffLines" fill="none" stroke="#000000" stroke-width="2.87" stroke-linejoin="bevel" points="37.3213,342.709 2409.45,342.709"/>
<polyline class="StaffLines" fill="none" stroke="#000000" stroke-width="2.87" stroke-linejoin="bevel" points="37.3213,364.819 2409.45,364.819"/>
<polyline class="StaffLines" fill="none" stroke="#000000" stroke-width="2.87" stroke-linejoin="bevel" points="37.3213,386.929 2409.45,386.929"/>
<polyline class="StaffLines" fill="none" stroke="#000000" stroke-width="2.87" stroke-linejoin="bevel" points="37.3213,409.039 2409.45,409.039"/>
<polyline class="StaffLines" fill="none" stroke="#000000" stroke-width="2.87" stroke-linejoin="bevel" points="37.3213,431.15 2409.45,431.15"/>
<polyline class="StaffLines" fill="none" stroke="#000000" stroke-width="2.87" stroke-linejoin="bevel" points="37.3213,574.866 2409.45,574.866"/>
<polyline class="StaffLines" fill="none" stroke="#000000" stroke-width="2.87" stroke-linejoin="bevel" points="37.3213,596.976 2409.45,596.976"/>
<polyline class="StaffLines" fill="none" stroke="#000000" stroke-width="2.87" stroke-linejoin="bevel" points="37.3213,619.087 2409.45,619.087"/>
<polyline class="StaffLines" fill="none" stroke="#000000" stroke-width="2.87" stroke-linejoin="bevel" points="37.3213,641.197 2409.45,641.197"/>
<polyline class="StaffLines" fill="none" stroke="#000000" stroke-width="2.87" stroke-linejoin="bevel" points="37.3213,663.307 2409.45,663.307"/>
<polyline class="BarLine" fill="none" stroke="#000000" stroke-width="3.54" stroke-linejoin="bevel" points="39.0901,573.429 39.0901,664.744"/>
<polyline class="BarLine" fill="none" stroke="#000000" stroke-width="3.54" stroke-linejoin="bevel" points="462.616,573.429 462.616,664.744"/>
<polyline class="BarLine" fill="none" stroke="#000000" stroke-width="3.54" stroke-linejoin="bevel" points="738.398,573.429 738.398,664.744"/>
<polyline class="BarLine" fill="none" stroke="#000000" stroke-width="3.54" stroke-linejoin="bevel" points="1014.18,573.429 1014.18,664.744"/>
<polyline class="BarLine" fill="none" stroke="#000000" stroke-width="3.54" stroke-linejoin="bevel" points="1294.38,573.429 1294.38,664.744"/>
<polyline class="BarLine" fill="none" stroke="#000000" stroke-width="3.54" stroke-linejoin="bevel" points="1564.64,573.429 1564.64,664.744"/>
<polyline class="BarLine" fill="none" stroke="#000000" stroke-width="3.54" stroke-linejoin="bevel" points="1840.42,573.429 1840.42,664.744"/>
<polyline class="BarLine" fill="none" stroke="#000000" stroke-width="3.54" stroke-linejoin="bevel" points="2116.2,573.429 2116.2,664.744"/>
<polyline class="BarLine" fill="none" stroke="#000000" stroke-width="3.54" stroke-linejoin="bevel" points="2395.3,573.429 2395.3,664.744"/>
<polyline class="BarLine" fill="none" stroke="#000000" stroke-width="3.54" stroke-linejoin="bevel" points="2407.68,573.429 2407.68,664.744"/>
<polyline class="BarLine" fill="none" stroke="#000000" stroke-width="3.54" stroke-linejoin="bevel" points="39.0901,341.271 39.0901,574.866"/>
<polyline class="BarLine" fill="none" stroke="#000000" stroke-width="3.54" stroke-linejoin="bevel" points="462.616,341.271 462.616,574.866"/>
<polyline class="BarLine" fill="none" stroke="#000000" stroke-width="3.54" stroke-linejoin="bevel" points="738.398,341.271 738.398,574.866"/>
<polyline class="BarLine" fill="none" stroke="#000000" stroke-width="3.54" stroke-linejoin="bevel" points="1014.18,341.271 1014.18,574.866"/>
<polyline class="BarLine" fill="none" stroke="#000000" stroke-width="3.54" stroke-linejoin="bevel" points="1294.38,341.271 1294.38,574.866"/>
<polyline class="BarLine" fill="none" stroke="#000000" stroke-width="3.54" stroke-linejoin="bevel" points="1564.64,341.271 1564.64,574.866"/>
<polyline class="BarLine" fill="none" stroke="#000000" stroke-width="3.54" stroke-linejoin="bevel" points="1840.42,341.271 1840.42,574.866"/>
<polyline class="BarLine" fill="none" stroke="#000000" stroke-width="3.54" stroke-linejoin="bevel" points="2116.2,341.271 2116.2,574.866"/>
<polyline class="BarLine" fill="none" stroke="#000000" stroke-width="3.54" stroke-linejoin="bevel" points="2395.3,341.271 2395.3,574.866"/>
<polyline class="BarLine" fill="none" stroke="#000000" stroke-width="3.54" stroke-linejoin="bevel" points="2407.68,341.271 2407.68,574.866"/>
<polyline class="Stem" fill="none" stroke="#000000" stroke-width="2.65" stroke-linejoin="bevel" points="250.644,627.17 250.644,558.283"/>
<polyline class="Stem" fill="none" stroke="#000000" stroke-width="2.65" stroke-linejoin="bevel" points="526.425,660.335 526.425,585.921"/>
<polyline class="Stem" fill="none" stroke="#000000" stroke-width="2.65" stroke-linejoin="bevel" points="802.207,660.335 802.207,585.921"/>
<polyline class="Stem" fill="none" stroke="#000000" stroke-width="2.65" stroke-linejoin="bevel" points="1082.41,627.17 1082.41,558.283"/>
<polyline class="Stem" fill="none" stroke="#000000" stroke-width="2.65" stroke-linejoin="bevel" points="1326.22,599.948 1326.22,671.598"/>
<polyline class="Stem" fill="none" stroke="#000000" stroke-width="2.65" stroke-linejoin="bevel" points="1628.45,627.17 1628.45,558.283"/>
<polyline class="Stem" fill="none" stroke="#000000" stroke-width="2.65" stroke-linejoin="bevel" points="1904.23,660.335 1904.23,585.921"/>
<polyline class="Stem" fill="none" stroke="#000000" stroke-width="2.65" stroke-linejoin="bevel" points="2183.33,627.17 2183.33,558.283"/>
<path class="Note" transform="matrix(0.884409,0,0,0.884409,222.875,630.142)" d="M10.7969,14 C29.2031,14 32.9063,-1 32.9063,-4.59375 C32.9063,-10.2969 28.4063,-14 21.9063,-14 C5.20313,-14 0,-1.09375 0,4.70313 C0,10.5938 4.70313,14 10.7969,14 M3.29688,4.90625 C3.29688,-0.5 19.4063,-9.40625 24.7031,-9.40625 C26.7969,-9.40625 28,-8.40625 28.7969,-7 C29.1094,-6.40625 29.4063,-5.70313 29.4063,-4.90625 C29.4063,-2.70313 27.1094,0 19.2969,5.09375 C14.2969,8.5 10.7969,9.70313 8.40625,9.70313 C6.09375,9.70313 4.70313,8.5 4,7.09375 C3.59375,6.5 3.29688,5.70313 3.29688,4.90625"/>
<path class="Note" transform="matrix(0.884409,0,0,0.884409,498.656,663.307)" d="M10.7969,14 C29.2031,14 32.9063,-1 32.9063,-4.59375 C32.9063,-10.2969 28.4063,-14 21.9063,-14 C5.20313,-14 0,-1.09375 0,4.70313 C0,10.5938 4.70313,14 10.7969,14 M3.29688,4.90625 C3.29688,-0.5 19.4063,-9.40625 24.7031,-9.40625 C26.7969,-9.40625 28,-8.40625 28.7969,-7 C29.1094,-6.40625 29.4063,-5.70313 29.4063,-4.90625 C29.4063,-2.70313 27.1094,0 19.2969,5.09375 C14.2969,8.5 10.7969,9.70313 8.40625,9.70313 C6.09375,9.70313 4.70313,8.5 4,7.09375 C3.59375,6.5 3.29688,5.70313 3.29688,4.90625"/>
<path class="Note" transform="matrix(0.884409,0,0,0.884409,774.438,663.307)" d="M10.7969,14 C29.2031,14 32.9063,-1 32.9063,-4.59375 C32.9063,-10.2969 28.4063,-14 21.9063,-14 C5.20313,-14 0,-1.09375 0,4.70313 C0,10.5938 4.70313,14 10.7969,14 M3.29688,4.90625 C3.29688,-0.5 19.4063,-9.40625 24.7031,-9.40625 C26.7969,-9.40625 28,-8.40625 28.7969,-7 C29.1094,-6.40625 29.4063,-5.70313 29.4063,-4.90625 C29.4063,-2.70313 27.1094,0 19.2969,5.09375 C14.2969,8.5 10.7969,9.70313 8.40625,9.70313 C6.09375,9.70313 4.70313,8.5 4,7.09375 C3.59375,6.5 3.29688,5.70313 3.29688,4.90625"/>
<path class="Note" transform="matrix(0.884409,0,0,0.884409,1054.64,630.142)" d="M10.7969,14 C29.2031,14 32.9063,-1 32.9063,-4.59375 C32.9063,-10.2969 28.4063,-14 21.9063,-14 C5.20313,-14 0,-1.09375 0,4.70313 C0,10.5938 4.70313,14 10.7969,14 M3.29688,4.90625 C3.29688,-0.5 19.4063,-9.40625 24.7031,-9.40625 C26.7969,-9.40625 28,-8.40625 28.7969,-7 C29.1094,-6.40625 29.4063,-5.70313 29.4063,-4.90625 C29.4063,-2.70313 27.1094,0 19.2969,5.09375 C14.2969,8.5 10.7969,9.70313 8.40625,9.70313 C6.09375,9.70313 4.70313,8.5 4,7.09375 C3.59375,6.5 3.29688,5.70313 3.29688,4.90625"/>
<path class="Note" transform="matrix(0.884409,0,0,0.884409,1324.9,596.976)" d="M10.7969,14 C29.2031,14 32.9063,-1 32.9063,-4.59375 C32.9063,-10.2969 28.4063,-14 21.9063,-14 C5.20313,-14 0,-1.09375 0,4.70313 C0,10.5938 4.70313,14 10.7969,14 M3.29688,4.90625 C3.29688,-0.5 19.4063,-9.40625 24.7031,-9.40625 C26.7969,-9.40625 28,-8.40625 28.7969,-7 C29.1094,-6.40625 29.4063,-5.70313 29.4063,-4.90625 C29.4063,-2.70313 27.1094,0 19.2969,5.09375 C14.2969,8.5 10.7969,9.70313 8.40625,9.70313 C6.09375,9.70313 4.70313,8.5 4,7.09375 C3.59375,6.5 3.29688,5.70313 3.29688,4.90625"/>
<path class="Note" transform="matrix(0.884409,0,0,0.884409,1600.68,630.142)" d="M10.7969,14 C29.2031,14 32.9063,-1 32.9063,-4.59375 C32.9063,-10.2969 28.4063,-14 21.9063,-14 C5.20313,-14 0,-1.09375 0,4.70313 C0,10.5938 4.70313,14 10.7969,14 M3.29688,4.90625 C3.29688,-0.5 19.4063,-9.40625 24.7031,-9.40625 C26.7969,-9.40625 28,-8.40625 28.7969,-7 C29.1094,-6.40625 29.4063,-5.70313 29.4063,-4.90625 C29.4063,-2.70313 27.1094,0 19.2969,5.09375 C14.2969,8.5 10.7969,9.70313 8.40625,9.70313 C6.09375,9.70313 4.70313,8.5 4,7.09375 C3.59375,6.5 3.29688,5.70313 3.29688,4.90625"/>
<path class="Note" transform="matrix(0.884409,0,0,0.884409,1876.46,663.307)" d="M10.7969,14 C29.2031,14 32.9063,-1 32.9063,-4.59375 C32.9063,-10.2969 28.4063,-14 21.9063,-14 C5.20313,-14 0,-1.09375 0,4.70313 C0,10.5938 4.70313,14 10.7969,14 M3.29688,4.90625 C3.29688,-0.5 19.4063,-9.40625 24.7031,-9.40625 C26.7969,-9.40625 28,-8.40625 28.7969,-7 C29.1094,-6.40625 29.4063,-5.70313 29.4063,-4.90625 C29.4063,-2.70313 27.1094,0 19.2969,5.09375 C14.2969,8.5 10.7969,9.70313 8.40625,9.70313 C6.09375,9.70313 4.70313,8.5 4,7.09375 C3.59375,6.5 3.29688,5.70313 3.29688,4.90625"/>
<path class="Note" transform="matrix(0.884409,0,0,0.884409,2155.56,630.142)" d="M10.7969,14 C29.2031,14 32.9063,-1 32.9063,-4.59375 C32.9063,-10.2969 28.4063,-14 21.9063,-14 C5.20313,-14 0,-1.09375 0,4.70313 C0,10.5938 4.70313,14 10.7969,14 M3.29688,4.90625 C3.29688,-0.5 19.4063,-9.40625 24.7031,-9.40625 C26.7969,-9.40625 28,-8.40625 28.7969,-7 C29.1094,-6.40625 29.4063,-5.70313 29.4063,-4.90625 C29.4063,-2.70313 27.1094,0 19.2969,5.09375 C14.2969,8.5 10.7969,9.70313 8.40625,9.70313 C6.09375,9.70313 4.70313,8.5 4,7.09375 C3.59375,6.5 3.29688,5.70313 3.29688,4.90625"/>
<path class="Clef" transform="matrix(0.884409,0,0,0.884409,58.9893,596.976)" d="M0.796875,63.5 C1.29688,63.5 1.90625,63.2969 2.5,63 C27.1094,51 53.1094,33.2031 53.1094,2.79688 C53.1094,-14.5938 42.5,-26.2031 25.2031,-26.2031 C7.79688,-26.2031 0,-13.5 0,-3.90625 C0,4.09375 4.20313,11 12.2969,11 C18.5938,11 22.9063,6.59375 22.9063,0.40625 C22.9063,-6 18.2031,-10 13.2969,-10 C10.5938,-10 9.59375,-9.29688 8.29688,-9.29688 C7,-9.29688 6.70313,-10.0938 6.70313,-11.0938 C6.70313,-15.0938 12.7031,-22.4063 22.9063,-22.4063 C33.5,-22.4063 38.1094,-12 38.1094,3.70313 C38.1094,31.6094 24.2969,47.2031 1,60.5 C0.09375,61 -0.5,61.5 -0.5,62.2969 C-0.5,62.9063 -0.09375,63.5 0.796875,63.5 M62.9063,-7 C66,-7 68.4063,-9.40625 68.4063,-12.5 C68.4063,-15.5938 66,-18 62.9063,-18 C59.7969,-18 57.4063,-15.5938 57.4063,-12.5 C57.4063,-9.40625 59.7969,-7 62.9063,-7 M63,17.9063 C66.1094,17.9063 68.4063,15.5938 68.4063,12.5 C68.4063,9.40625 66.1094,7.09375 63,7.09375 C59.9063,7.09375 57.6094,9.40625 57.6094,12.5 C57.6094,15.5938 59.9063,17.9063 63,17.9063"/>
<path class="Clef" transform="matrix(0.884409,0,0,0.884409,58.9893,409.039)" d="M36.4063,25.2031 C38.7031,25.2031 41.2969,25 43.2969,24.5938 C44.4063,24.4063 44.6094,24.2969 44.7969,25.5 C46,32.2031 47.5,40.9063 47.5,45.6094 C47.5,60.4063 37.5,62.2031 31.6094,62.2031 C26.2031,62.2031 23.5938,60.6094 23.5938,59.2969 C23.5938,58.6094 24.5,58.2969 26.7969,57.6094 C29.9063,56.7031 33.5,54 33.5,48.2031 C33.5,42.7031 30,38 23.9063,38 C17.2031,38 13.2031,43.2969 13.2031,49.5 C13.2031,56 17.0938,65.7969 32.2031,65.7969 C38.9063,65.7969 51.9063,62.7969 51.9063,45.7969 C51.9063,40.1094 50.1094,30.6094 49,24.4063 C48.7969,23.2031 48.9063,23.2969 50.2969,22.7031 C60.4063,18.7031 67.1094,10.2031 67.1094,-1.09375 C67.1094,-13.9063 57.7031,-25.2031 43,-25.2031 C40.4063,-25.2031 40.4063,-25.2031 40.1094,-27 L37.6094,-41.5 C37.4063,-42.7031 37.6094,-42.7969 38.2031,-43.4063 C49,-53.5 57.2031,-66.2031 57.2031,-81.5 C57.2031,-90.2031 54.7969,-98.8125 50.7031,-104.813 C49.2031,-107 46.6094,-109.813 45.5,-109.813 C44.1094,-109.813 41,-107.203 39,-105 C31.6094,-96.8125 29.2031,-84.3125 29.2031,-73.9063 C29.2031,-68.1094 29.9063,-61.6094 30.6094,-57.5 C30.7969,-56.2969 30.9063,-56.1094 29.7031,-55.1094 C15.2969,-43.2031 0,-28.9063 0,-8.70313 C0,8.70313 11.9063,25.2031 36.4063,25.2031 M8,-2 C8,-7.90625 9,-15.7969 17.2969,-25.2031 C23.2969,-31.9063 27.9063,-35.6094 32.6094,-39.4063 C33.6094,-40.2031 33.7969,-40.1094 34,-39 L36.1094,-26.2031 C36.4063,-24.2969 36.4063,-24.4063 34.6094,-23.7969 C25.7969,-20.7969 20.0938,-12.9063 20.0938,-4.40625 C20.0938,4.59375 24.7969,11 31.6094,13.2969 C32.4063,13.5938 33.6094,13.9063 34.2969,13.9063 C35.1094,13.9063 35.5,13.4063 35.5,12.7969 C35.5,12.0938 34.7031,11.7969 34,11.5 C29.7969,9.70313 26.7969,5.40625 26.7969,0.796875 C26.7969,-4.90625 30.7031,-9.20313 36.7969,-10.9063 C38.4063,-11.2969 38.6094,-11.2031 38.7969,-10.0938 L43.7969,19.7031 C44,20.7969 43.9063,20.7969 42.4063,21.0938 C40.7969,21.4063 38.7969,21.5938 36.7969,21.5938 C19.2969,21.5938 8,11.9063 8,-2 M47,-94.3125 C50.2969,-94.3125 53,-91.6094 53,-86.1094 C53,-75 43.5,-66 35.6094,-59.1094 C34.9063,-58.5 34.5,-58.6094 34.2969,-59.9063 C33.9063,-62.5 33.7031,-65.9063 33.7031,-69.1094 C33.7031,-84.7031 40.9063,-94.3125 47,-94.3125 M44.1094,-11.7031 C52.2031,-11 58.9063,-4.20313 58.9063,4.59375 C58.9063,10.9063 55.1094,16 49.5,18.7969 C48.2969,19.4063 48.1094,19.4063 47.9063,18.2031 L43,-10.2969 C42.7969,-11.5 42.9063,-11.7969 44.1094,-11.7031"/>
<path class="TimeSig" transform="matrix(0.884409,0,0,0.884409,141.156,619.087)" d="M7,18.2031 C10.7969,22.7969 16.2969,24.9063 22.2969,24.9063 C39.7969,24.9063 42.4063,9 42.4063,6.09375 C42.4063,3.90625 41.2969,3.90625 40.9063,3.90625 C40.1094,3.90625 39.4063,4 39.4063,5.70313 C39.4063,18.5938 28.4063,21.5938 25.2031,21.5938 C17.0938,21.5938 12.7969,13.7031 12.7969,-2.79688 C12.7969,-19.2969 20.4063,-22.7031 25.7969,-22.7031 C31,-22.7031 33.1094,-20.2969 33.1094,-19.2969 C33.1094,-18.4063 32.7969,-17.0938 31.2969,-17.0938 C27.2969,-17.0938 25,-12.7969 25,-9.70313 C25,-4 29.9063,-2.20313 32.7031,-2.20313 C32.7031,-2.20313 40.2969,-2.5 40.2969,-10.7969 C40.2969,-23.9063 25.2031,-25.0938 23.2969,-25.0938 C9.09375,-25.0938 0.5,-12.5 0.5,1 C0.5,7.5 2.90625,13.2031 7,18.2031"/>
<path class="TimeSig" transform="matrix(0.884409,0,0,0.884409,141.156,386.929)" d="M7,18.2031 C10.7969,22.7969 16.2969,24.9063 22.2969,24.9063 C39.7969,24.9063 42.4063,9 42.4063,6.09375 C42.4063,3.90625 41.2969,3.90625 40.9063,3.90625 C40.1094,3.90625 39.4063,4 39.4063,5.70313 C39.4063,18.5938 28.4063,21.5938 25.2031,21.5938 C17.0938,21.5938 12.7969,13.7031 12.7969,-2.79688 C12.7969,-19.2969 20.4063,-22.7031 25.7969,-22.7031 C31,-22.7031 33.1094,-20.2969 33.1094,-19.2969 C33.1094,-18.4063 32.7969,-17.0938 31.2969,-17.0938 C27.2969,-17.0938 25,-12.7969 25,-9.70313 C25,-4 29.9063,-2.20313 32.7031,-2.20313 C32.7031,-2.20313 40.2969,-2.5 40.2969,-10.7969 C40.2969,-23.9063 25.2031,-25.0938 23.2969,-25.0938 C9.09375,-25.0938 0.5,-12.5 0.5,1 C0.5,7.5 2.90625,13.2031 7,18.2031"/>
<path class="StaffText" d="M1700.73,222.502 L1674.3,222.502 L1674.3,224.565 L1675.08,224.565 C1677.59,224.611 1678.42,224.736 1678.78,225.174 C1679.05,225.58 1679.05,225.658 1679.05,227.908 L1679.05,248.861 C1679.05,251.096 1679.05,251.19 1678.78,251.58 C1678.42,252.018 1677.59,252.205 1675.08,252.205 L1674.3,252.205 L1674.3,254.268 L1701.31,254.268 L1702.19,242.518 L1700.25,242.518 C1698.58,250.346 1696.78,252.018 1690.05,252.205 L1687.14,252.205 C1684.5,252.111 1683.84,251.674 1683.97,250.08 L1683.97,238.861 L1684.86,238.861 C1689.39,238.69 1691.02,240.315 1691.19,245.205 L1693.27,245.205 L1693.27,230.768 L1691.19,230.768 C1690.92,235.08 1689.2,236.799 1685.03,236.799 L1683.97,236.799 L1683.97,226.768 C1683.92,224.908 1684.38,224.611 1686.75,224.565 L1689.03,224.565 C1696.25,224.518 1698.06,226.096 1699.47,233.721 L1701.36,233.721 L1700.73,222.502 M1713.81,233.768 L1706.2,234.252 L1706.2,236.143 L1707.78,236.143 C1709.45,236.174 1709.69,236.44 1709.69,238.33 L1709.69,248.861 L1709.69,249.908 L1709.69,250.924 C1709.64,251.58 1709.59,251.846 1709.42,252.065 C1709.11,252.471 1708.27,252.643 1706.38,252.69 L1706.2,252.69 L1706.2,254.268 L1717.34,254.268 L1717.34,252.69 L1717.16,252.69 C1714.22,252.596 1713.81,252.377 1713.81,250.799 L1713.81,248.861 L1713.81,244.283 C1713.81,242.127 1714.13,240.143 1714.61,239.127 C1715.53,237.143 1717.52,235.783 1719.41,235.783 C1720.55,235.783 1721.88,236.408 1722.53,237.33 C1723.19,238.299 1723.5,239.611 1723.5,241.721 L1723.5,248.861 L1723.5,250.924 C1723.45,251.58 1723.41,251.846 1723.23,252.065 C1722.92,252.471 1722.05,252.643 1720.16,252.69 L1719.98,252.69 L1719.98,254.268 L1731.11,254.268 L1731.11,252.69 L1730.94,252.69 C1728.03,252.596 1727.64,252.377 1727.64,250.799 L1727.64,248.861 L1727.64,241.94 C1727.64,238.783 1727.5,237.986 1726.7,236.486 C1725.61,234.377 1723.41,233.096 1720.77,233.096 C1717.91,233.096 1715.75,234.424 1713.81,237.33 L1713.81,233.768 M1740.55,233.768 L1740.55,225.049 L1738.75,225.049 C1738.31,230.768 1736.38,233.674 1732.81,233.94 L1732.81,235.658 L1736.42,235.658 L1736.42,246.877 C1736.42,249.955 1736.5,251.049 1736.94,252.065 C1737.66,253.908 1739.41,254.924 1741.97,254.924 C1745.92,254.924 1748.47,251.94 1748.47,247.268 C1748.47,247.002 1748.47,246.705 1748.44,246.252 L1746.58,246.252 C1746.45,250.221 1745.31,252.236 1743.16,252.236 C1742.14,252.236 1741.25,251.721 1740.95,250.971 C1740.69,250.346 1740.55,249.252 1740.55,247.674 L1740.55,235.658 L1747.02,235.658 L1747.02,233.768 L1740.55,233.768 M1773.09,248.596 L1768.78,237.283 C1768.64,236.971 1768.59,236.705 1768.59,236.361 C1768.59,235.565 1769,235.346 1770.45,235.346 L1771.5,235.346 L1771.5,233.768 L1761.64,233.768 L1761.64,235.346 L1762.39,235.346 C1763.8,235.393 1764.38,235.736 1764.72,236.971 L1765.08,238.111 L1761.2,248.377 L1756.94,237.33 C1756.84,237.018 1756.77,236.627 1756.77,236.361 C1756.77,235.611 1757.25,235.346 1758.56,235.346 L1759.36,235.346 L1759.36,233.768 L1749.67,233.768 L1749.67,235.346 L1750.47,235.346 C1751.7,235.393 1752.27,235.924 1752.75,237.502 L1759.36,254.924 L1760.89,254.924 L1766.14,241.018 L1771.5,254.924 L1772.86,254.924 L1779.03,238.69 C1780,236.096 1780.66,235.393 1782.28,235.346 L1782.59,235.346 L1782.59,233.768 L1774.28,233.768 L1774.28,235.346 L1775.02,235.346 C1776.56,235.346 1777.19,235.783 1777.19,236.971 C1777.19,237.408 1777.05,237.986 1776.83,238.565 L1773.09,248.596 M1793.08,233.768 L1784.81,234.252 L1784.81,236.143 L1787.05,236.143 C1788.72,236.174 1788.94,236.44 1788.94,238.33 L1788.94,248.861 L1788.94,250.924 C1788.91,251.58 1788.86,251.846 1788.69,252.065 C1788.38,252.471 1787.53,252.643 1785.64,252.69 L1785.33,252.69 L1785.33,254.268 L1796.73,254.268 L1796.73,252.69 L1796.42,252.69 C1793.48,252.596 1793.08,252.377 1793.08,250.799 L1793.08,248.861 L1793.08,233.768 M1791.02,222.799 C1789.61,222.799 1788.45,223.94 1788.45,225.361 C1788.45,226.768 1789.61,227.908 1790.97,227.908 C1792.42,227.908 1793.56,226.768 1793.56,225.361 C1793.56,223.94 1792.42,222.799 1791.02,222.799 M1815.05,247.799 C1813.64,250.971 1812.14,252.236 1809.86,252.236 C1806.33,252.236 1804.13,249.033 1804.13,243.877 C1804.13,238.518 1806.28,234.986 1809.55,234.986 C1810.86,234.986 1812.02,235.611 1812.02,236.315 C1812.02,236.44 1811.97,236.58 1811.75,236.846 C1811.05,237.674 1810.86,238.111 1810.86,238.861 C1810.86,240.315 1811.97,241.33 1813.5,241.33 C1815.09,241.33 1816.19,240.096 1816.19,238.33 C1816.19,235.346 1813.23,233.096 1809.33,233.096 C1803.61,233.096 1799.52,237.768 1799.52,244.361 C1799.52,250.611 1803.25,254.924 1808.7,254.924 C1812.63,254.924 1814.88,253.127 1816.77,248.455 L1815.05,247.799 M1825.77,243.611 L1825.77,221.83 L1817.63,222.315 L1817.63,224.205 L1819.75,224.205 C1821.42,224.252 1821.64,224.518 1821.64,226.408 L1821.64,248.861 L1821.64,250.971 C1821.59,251.58 1821.55,251.846 1821.38,252.065 C1821.06,252.471 1820.23,252.643 1818.33,252.69 L1818.16,252.69 L1818.16,254.268 L1829.3,254.268 L1829.3,252.69 L1829.13,252.69 C1826.17,252.596 1825.77,252.377 1825.77,250.799 L1825.77,248.861 L1825.77,246.346 L1828.45,243.799 L1833.69,251.143 C1833.92,251.502 1834,251.721 1834,251.893 C1834,252.502 1833.52,252.69 1832.06,252.69 L1831.23,252.69 L1831.23,254.268 L1842.84,254.268 L1842.84,252.69 C1840.39,252.471 1839.5,251.94 1837.7,249.643 L1831.45,241.111 L1833.44,239.174 C1836.03,236.658 1837.88,235.69 1840.86,235.346 L1840.86,233.768 L1829.3,233.768 L1829.3,235.346 L1830.66,235.346 C1832.06,235.346 1832.72,235.611 1832.72,236.174 C1832.72,236.658 1832.42,237.19 1831.72,237.893 L1825.77,243.611 M1853,221.83 L1844.86,222.315 L1844.86,224.205 L1847.02,224.205 C1848.64,224.252 1848.86,224.518 1848.86,226.408 L1848.86,248.861 L1848.86,250.924 C1848.81,251.58 1848.77,251.846 1848.59,252.065 C1848.28,252.471 1847.45,252.643 1845.56,252.69 L1845.25,252.69 L1845.25,254.268 L1856.64,254.268 L1856.64,252.69 L1856.34,252.69 C1853.39,252.596 1853,252.377 1853,250.799 L1853,248.861 L1853,221.83 M1876.14,254.58 L1884.16,254.268 L1884.16,252.377 L1883.06,252.377 C1880.5,252.283 1880.28,252.018 1880.28,249.158 L1880.28,233.768 L1872.02,234.252 L1872.02,236.143 L1874.25,236.143 C1875.92,236.174 1876.14,236.44 1876.14,238.33 L1876.14,243.752 C1876.14,246.252 1875.88,247.752 1875.22,249.158 C1874.3,251.143 1872.53,252.236 1870.38,252.236 C1869.02,252.236 1867.88,251.752 1867.3,250.877 C1866.73,250.049 1866.64,249.596 1866.64,247.19 L1866.64,233.768 L1858.94,234.252 L1858.94,236.143 L1860.61,236.143 C1862.28,236.174 1862.5,236.44 1862.5,238.33 L1862.5,247.846 C1862.5,250.08 1862.69,251.096 1863.34,252.111 C1864.53,253.908 1866.64,254.924 1869.28,254.924 C1872.19,254.924 1874.2,253.736 1876.14,250.924 L1876.14,254.58 M1893.81,233.768 L1886.2,234.252 L1886.2,236.143 L1887.78,236.143 C1889.45,236.174 1889.69,236.44 1889.69,238.33 L1889.69,248.861 L1889.69,249.908 L1889.69,250.924 C1889.64,251.58 1889.59,251.846 1889.42,252.065 C1889.11,252.471 1888.27,252.643 1886.38,252.69 L1886.2,252.69 L1886.2,254.268 L1897.34,254.268 L1897.34,252.69 L1897.16,252.69 C1894.22,252.596 1893.81,252.377 1893.81,250.799 L1893.81,248.861 L1893.81,244.283 C1893.81,242.127 1894.13,240.143 1894.61,239.127 C1895.53,237.143 1897.52,235.783 1899.41,235.783 C1900.55,235.783 1901.88,236.408 1902.53,237.33 C1903.19,238.299 1903.5,239.611 1903.5,241.721 L1903.5,248.861 L1903.5,250.924 C1903.45,251.58 1903.41,251.846 1903.23,252.065 C1902.92,252.471 1902.05,252.643 1900.16,252.69 L1899.98,252.69 L1899.98,254.268 L1911.11,254.268 L1911.11,252.69 L1910.94,252.69 C1908.03,252.596 1907.64,252.377 1907.64,250.799 L1907.64,248.861 L1907.64,241.94 C1907.64,238.783 1907.5,237.986 1906.7,236.486 C1905.61,234.377 1903.41,233.096 1900.77,233.096 C1897.91,233.096 1895.75,234.424 1893.81,237.33 L1893.81,233.768 M1920.64,251.018 C1918.22,250.971 1918.09,250.924 1917.56,250.611 C1917.25,250.44 1917.03,249.955 1917.03,249.471 C1917.03,248.158 1918.22,247.58 1921.17,247.486 C1925.31,247.408 1925.97,247.315 1927.47,246.658 C1930.11,245.471 1931.55,243.174 1931.55,240.268 C1931.55,238.518 1931.16,237.408 1929.97,235.955 C1930.72,235.174 1931.11,234.908 1931.47,234.908 C1931.69,234.908 1931.81,235.033 1931.91,235.518 C1932.08,236.58 1932.78,237.143 1933.89,237.143 C1935.03,237.143 1935.86,236.221 1935.86,235.033 C1935.86,233.533 1934.67,232.486 1932.97,232.486 C1931.55,232.486 1930.77,232.924 1928.73,234.768 C1926.89,233.533 1925.48,233.096 1923.28,233.096 C1918.05,233.096 1914.61,236.002 1914.61,240.408 C1914.61,243.002 1916.02,245.205 1918.31,246.299 C1915.36,246.955 1914.13,248.283 1914.13,250.705 C1914.13,252.643 1915.02,253.783 1917.08,254.486 C1914.34,255.502 1913.03,256.861 1913.03,258.674 C1913.03,259.986 1913.91,261.221 1915.31,261.971 C1917.03,262.846 1919.14,263.205 1922.31,263.205 C1929.66,263.205 1933.31,260.861 1933.31,256.252 C1933.31,254.049 1932.3,252.283 1930.72,251.627 C1929.53,251.19 1928.13,251.018 1925.13,251.018 L1920.64,251.018 M1923.23,234.986 C1925.97,234.986 1927.5,236.893 1927.5,240.315 C1927.5,243.752 1925.83,245.815 1923.06,245.815 C1920.33,245.815 1918.61,243.752 1918.61,240.455 C1918.61,236.971 1920.28,234.986 1923.23,234.986 M1922.84,254.799 C1926.5,254.799 1926.75,254.799 1927.38,254.877 C1929.17,255.065 1930.23,256.033 1930.23,257.44 C1930.23,259.94 1927.38,261.393 1922.48,261.393 C1918.75,261.393 1916.69,260.299 1916.69,258.315 C1916.69,256.861 1917.47,255.893 1919.58,254.799 L1922.84,254.799 "/>
<path class="StaffText" d="M383.794,240.143 L388.778,240.143 C392.731,240.143 394.809,239.83 396.606,239.002 C399.684,237.502 401.45,234.69 401.45,231.205 C401.45,227.861 399.903,225.315 396.997,223.861 C395.294,222.986 392.559,222.502 389.528,222.502 L374.122,222.502 L374.122,224.565 L374.919,224.565 C377.419,224.611 378.262,224.736 378.606,225.174 C378.872,225.58 378.872,225.658 378.872,227.908 L378.872,248.861 C378.872,251.096 378.872,251.19 378.606,251.58 C378.262,252.018 377.419,252.205 374.919,252.205 L374.122,252.205 L374.122,254.268 L388.903,254.268 L388.903,252.205 L387.762,252.205 C385.247,252.205 384.419,252.018 384.059,251.58 C383.794,251.19 383.794,251.096 383.794,248.861 L383.794,240.143 M383.794,238.08 L383.794,226.815 C383.794,224.783 384.028,224.565 386.481,224.565 L389.309,224.565 C393.872,224.565 396.028,226.721 396.028,231.377 C396.028,235.924 393.794,238.08 389.122,238.08 L383.794,238.08 M409.684,221.83 L401.544,222.315 L401.544,224.205 L403.653,224.205 C405.325,224.252 405.559,224.518 405.559,226.408 L405.559,248.861 L405.559,249.908 L405.559,250.971 C405.512,251.58 405.466,251.846 405.294,252.065 C404.981,252.471 404.137,252.643 402.247,252.69 L402.075,252.69 L402.075,254.268 L413.216,254.268 L413.216,252.69 L413.028,252.69 C410.091,252.596 409.684,252.377 409.684,250.799 L409.684,248.861 L409.684,244.283 C409.684,242.127 409.997,240.143 410.481,239.127 C411.45,237.143 413.387,235.783 415.278,235.783 C416.419,235.783 417.747,236.44 418.356,237.33 C419.059,238.299 419.372,239.611 419.372,241.768 L419.372,248.861 L419.372,250.971 C419.325,251.58 419.278,251.846 419.106,252.065 C418.794,252.471 417.919,252.643 416.028,252.69 L415.856,252.69 L415.856,254.268 L426.981,254.268 L426.981,252.69 L426.809,252.69 C423.903,252.596 423.512,252.377 423.512,250.799 L423.512,248.861 L423.512,241.94 C423.512,238.783 423.372,237.986 422.575,236.486 C421.481,234.33 419.278,233.096 416.637,233.096 C413.778,233.096 411.669,234.377 409.684,237.33 L409.684,221.83 M436.606,233.768 L428.809,234.252 L428.809,236.143 L430.622,236.143 C432.294,236.174 432.512,236.44 432.512,238.33 L432.512,248.861 L432.512,250.924 C432.466,251.58 432.419,251.846 432.247,252.065 C431.934,252.471 431.059,252.643 429.169,252.69 L428.981,252.69 L428.981,254.268 L440.731,254.268 L440.731,252.69 L439.95,252.69 C436.997,252.596 436.606,252.377 436.606,250.799 L436.606,248.861 L436.606,248.408 C436.637,241.018 439.278,235.393 442.716,235.205 C442.106,235.924 441.919,236.361 441.919,237.19 C441.919,238.596 442.934,239.611 444.341,239.611 C445.981,239.611 447.028,238.424 447.028,236.658 C447.028,234.502 445.528,233.096 443.2,233.096 C440.434,233.096 438.059,235.299 436.606,239.221 L436.606,233.768 M467.778,240.096 C467.778,237.33 467.294,235.924 466.012,234.861 C464.559,233.674 462.403,233.096 459.591,233.096 C454.622,233.096 451.012,235.44 451.012,238.643 C451.012,240.268 452.028,241.33 453.559,241.33 C454.966,241.33 455.934,240.408 455.934,239.08 C455.934,238.518 455.716,237.893 455.278,237.283 C455.012,236.971 454.966,236.893 454.966,236.658 C454.966,235.783 456.731,234.986 458.841,234.986 C460.247,234.986 461.794,235.44 462.497,236.096 C463.341,236.799 463.637,237.846 463.637,239.83 L463.637,241.549 C459.059,242.346 457.606,242.69 455.45,243.533 C451.622,244.94 449.825,246.955 449.825,249.783 C449.825,252.955 452.294,254.924 456.2,254.924 C459.247,254.924 461.966,253.69 463.856,251.455 C464.559,253.69 465.669,254.58 467.731,254.58 C469.716,254.58 471.778,253.299 471.778,252.018 C471.778,251.721 471.606,251.502 471.341,251.502 C471.169,251.502 470.997,251.533 470.684,251.674 C470.059,251.94 469.809,251.986 469.45,251.986 C468.216,251.986 467.778,251.19 467.778,248.94 L467.778,240.096 M463.637,245.471 C463.637,248.111 463.512,248.721 462.762,249.861 C461.669,251.502 459.684,252.596 457.747,252.596 C455.716,252.596 454.262,251.143 454.262,249.158 C454.262,247.315 455.2,246.002 457.122,245.065 C458.497,244.455 460.216,244.018 463.637,243.44 L463.637,245.471 M489.044,233.283 L487.512,233.283 L486.231,234.861 C484.653,233.627 483.059,233.096 480.872,233.096 C476.997,233.096 474.434,235.611 474.434,239.486 C474.434,241.205 475.012,242.643 475.981,243.533 C476.997,244.455 477.997,244.893 480.637,245.518 L482.981,246.033 C486.45,246.877 487.684,247.752 487.684,249.518 C487.684,251.58 485.887,253.033 483.325,253.033 C479.591,253.033 476.95,250.658 475.887,246.252 L474.137,246.252 L474.137,254.58 L475.669,254.58 L477.216,252.768 C479.012,254.221 480.997,254.924 483.247,254.924 C487.559,254.924 490.419,252.236 490.419,248.158 C490.419,246.221 489.794,244.721 488.559,243.705 C487.512,242.783 486.622,242.424 483.95,241.861 L481.747,241.377 C479.325,240.846 479.325,240.846 478.528,240.408 C477.559,239.971 476.997,239.049 476.997,238.08 C476.997,236.268 478.669,235.033 481.091,235.033 C482.762,235.033 484.122,235.611 485.356,236.799 C486.325,237.768 486.809,238.643 487.512,240.674 L489.044,240.674 L489.044,233.283 M512.356,244.361 C512.387,237.768 508.653,233.096 503.278,233.096 C497.653,233.096 493.434,237.986 493.434,244.58 C493.434,250.799 497.434,254.924 503.372,254.924 C507.591,254.924 510.544,252.861 512.356,248.674 L510.809,247.846 C509.012,251.236 507.153,252.549 504.216,252.549 C501.966,252.549 500.341,251.627 499.2,249.643 C498.403,248.33 498.044,246.783 498.091,244.361 L512.356,244.361 M498.137,242.471 C498.137,241.111 498.309,240.143 498.747,238.908 C499.684,236.268 501.091,234.986 503.247,234.986 C505.887,234.986 507.637,237.33 507.637,240.893 C507.637,242.127 507.247,242.471 505.841,242.471 L498.137,242.471 "/>
<path class="StaffText" d="M626.588,158.252 L618.526,137.845 C618.307,137.267 618.182,136.689 618.182,136.47 C618.182,135.689 618.932,135.377 620.916,135.377 L622.666,135.377 L622.666,133.314 L608.932,133.314 L608.932,135.377 L609.823,135.377 C611.838,135.423 612.51,135.908 613.213,137.845 L624.338,165.736 L626.104,165.736 L636.229,139.689 C637.541,136.252 638.463,135.47 641.026,135.377 L641.463,135.377 L641.463,133.314 L629.541,133.314 L629.541,135.377 L630.369,135.377 C632.619,135.377 633.932,136.252 633.932,137.658 C633.932,138.283 633.713,139.252 633.401,140.127 L626.588,158.252 M649.385,143.908 C643.963,143.908 639.791,148.705 639.791,154.877 C639.791,160.892 644.01,165.736 649.291,165.736 C654.573,165.736 658.791,160.892 658.791,154.83 C658.791,148.798 654.573,143.908 649.385,143.908 M649.385,145.798 C652.463,145.798 654.182,149.017 654.182,154.83 C654.182,160.673 652.463,163.845 649.291,163.845 C646.119,163.845 644.401,160.673 644.401,154.877 C644.401,148.892 646.088,145.798 649.385,145.798 M669.01,144.58 L661.213,145.064 L661.213,146.955 L663.026,146.955 C664.698,146.986 664.916,147.252 664.916,149.142 L664.916,159.673 L664.916,161.736 C664.869,162.392 664.823,162.658 664.651,162.877 C664.338,163.283 663.463,163.455 661.573,163.502 L661.385,163.502 L661.385,165.08 L673.135,165.08 L673.135,163.502 L672.354,163.502 C669.401,163.408 669.01,163.189 669.01,161.611 L669.01,159.673 L669.01,159.22 C669.041,151.83 671.682,146.205 675.119,146.017 C674.51,146.736 674.323,147.173 674.323,148.002 C674.323,149.408 675.338,150.423 676.744,150.423 C678.385,150.423 679.432,149.236 679.432,147.47 C679.432,145.314 677.932,143.908 675.604,143.908 C672.838,143.908 670.463,146.111 669.01,150.033 L669.01,144.58 M697.01,165.392 L704.666,165.08 L704.666,163.189 L703.885,163.189 C701.369,163.048 701.151,162.798 701.151,159.97 L701.151,132.642 L692.526,133.127 L692.526,135.017 L695.119,135.017 C696.791,135.064 697.01,135.33 697.01,137.22 L697.01,147.173 C695.385,144.923 693.494,143.908 690.948,143.908 C685.963,143.908 682.182,148.705 682.182,155.048 C682.182,161.298 685.838,165.736 690.948,165.736 C693.713,165.736 695.604,164.548 697.01,161.908 L697.01,165.392 M691.823,146.283 C693.619,146.283 695.338,147.611 696.135,149.627 C696.713,150.955 696.963,152.752 696.963,154.908 C696.963,160.064 694.948,163.361 691.776,163.361 C688.651,163.361 686.807,160.455 686.807,155.58 C686.807,152.939 687.073,150.955 687.635,149.502 C688.385,147.517 690.01,146.283 691.823,146.283 M725.76,155.173 C725.791,148.58 722.057,143.908 716.682,143.908 C711.057,143.908 706.838,148.798 706.838,155.392 C706.838,161.611 710.838,165.736 716.776,165.736 C720.994,165.736 723.948,163.673 725.76,159.486 L724.213,158.658 C722.416,162.048 720.557,163.361 717.619,163.361 C715.369,163.361 713.744,162.439 712.604,160.455 C711.807,159.142 711.448,157.595 711.494,155.173 L725.76,155.173 M711.541,153.283 C711.541,151.923 711.713,150.955 712.151,149.72 C713.088,147.08 714.494,145.798 716.651,145.798 C719.291,145.798 721.041,148.142 721.041,151.705 C721.041,152.939 720.651,153.283 719.244,153.283 L711.541,153.283 M736.01,144.58 L728.213,145.064 L728.213,146.955 L730.026,146.955 C731.698,146.986 731.916,147.252 731.916,149.142 L731.916,159.673 L731.916,161.736 C731.869,162.392 731.823,162.658 731.651,162.877 C731.338,163.283 730.463,163.455 728.573,163.502 L728.385,163.502 L728.385,165.08 L740.135,165.08 L740.135,163.502 L739.354,163.502 C736.401,163.408 736.01,163.189 736.01,161.611 L736.01,159.673 L736.01,159.22 C736.041,151.83 738.682,146.205 742.119,146.017 C741.51,146.736 741.323,147.173 741.323,148.002 C741.323,149.408 742.338,150.423 743.744,150.423 C745.385,150.423 746.432,149.236 746.432,147.47 C746.432,145.314 744.932,143.908 742.604,143.908 C739.838,143.908 737.463,146.111 736.01,150.033 L736.01,144.58 M764.448,144.095 L762.916,144.095 L761.635,145.673 C760.057,144.439 758.463,143.908 756.276,143.908 C752.401,143.908 749.838,146.423 749.838,150.298 C749.838,152.017 750.416,153.455 751.385,154.345 C752.401,155.267 753.401,155.705 756.041,156.33 L758.385,156.845 C761.854,157.689 763.088,158.564 763.088,160.33 C763.088,162.392 761.291,163.845 758.729,163.845 C754.994,163.845 752.354,161.47 751.291,157.064 L749.541,157.064 L749.541,165.392 L751.073,165.392 L752.619,163.58 C754.416,165.033 756.401,165.736 758.651,165.736 C762.963,165.736 765.823,163.048 765.823,158.97 C765.823,157.033 765.198,155.533 763.963,154.517 C762.916,153.595 762.026,153.236 759.354,152.673 L757.151,152.189 C754.729,151.658 754.729,151.658 753.932,151.22 C752.963,150.783 752.401,149.861 752.401,148.892 C752.401,147.08 754.073,145.845 756.494,145.845 C758.166,145.845 759.526,146.423 760.76,147.611 C761.729,148.58 762.213,149.455 762.916,151.486 L764.448,151.486 L764.448,144.095 M787.182,150.908 C787.182,148.142 786.698,146.736 785.416,145.673 C783.963,144.486 781.807,143.908 778.994,143.908 C774.026,143.908 770.416,146.252 770.416,149.455 C770.416,151.08 771.432,152.142 772.963,152.142 C774.369,152.142 775.338,151.22 775.338,149.892 C775.338,149.33 775.119,148.705 774.682,148.095 C774.416,147.783 774.369,147.705 774.369,147.47 C774.369,146.595 776.135,145.798 778.244,145.798 C779.651,145.798 781.198,146.252 781.901,146.908 C782.744,147.611 783.041,148.658 783.041,150.642 L783.041,152.361 C778.463,153.158 777.01,153.502 774.854,154.345 C771.026,155.752 769.229,157.767 769.229,160.595 C769.229,163.767 771.698,165.736 775.604,165.736 C778.651,165.736 781.369,164.502 783.26,162.267 C783.963,164.502 785.073,165.392 787.135,165.392 C789.119,165.392 791.182,164.111 791.182,162.83 C791.182,162.533 791.01,162.314 790.744,162.314 C790.573,162.314 790.401,162.345 790.088,162.486 C789.463,162.752 789.213,162.798 788.854,162.798 C787.619,162.798 787.182,162.002 787.182,159.752 L787.182,150.908 M783.041,156.283 C783.041,158.923 782.916,159.533 782.166,160.673 C781.073,162.314 779.088,163.408 777.151,163.408 C775.119,163.408 773.666,161.955 773.666,159.97 C773.666,158.127 774.604,156.814 776.526,155.877 C777.901,155.267 779.619,154.83 783.041,154.252 L783.041,156.283 M798.823,144.58 L798.823,135.861 L797.026,135.861 C796.588,141.58 794.651,144.486 791.088,144.752 L791.088,146.47 L794.698,146.47 L794.698,157.689 C794.698,160.767 794.776,161.861 795.213,162.877 C795.932,164.72 797.682,165.736 800.244,165.736 C804.198,165.736 806.744,162.752 806.744,158.08 C806.744,157.814 806.744,157.517 806.713,157.064 L804.854,157.064 C804.729,161.033 803.588,163.048 801.432,163.048 C800.416,163.048 799.526,162.533 799.229,161.783 C798.963,161.158 798.823,160.064 798.823,158.486 L798.823,146.47 L805.291,146.47 L805.291,144.58 L798.823,144.58 M826.119,144.58 L810.244,144.58 L809.838,152.017 L811.604,152.017 C811.963,148.095 813.666,146.423 817.198,146.47 L821.026,146.47 L809.01,163.502 L809.01,165.08 L826.119,165.08 L826.432,157.205 L824.666,157.205 C824.229,161.517 822.51,163.236 818.604,163.189 L814.119,163.189 L826.119,146.158 L826.119,144.58 "/>
<path class="StaffText" d="M1167.41,11.3068 L1164.79,11.3068 L1161.94,15.5724 C1158.54,12.3693 1154.07,10.6661 1149.02,10.6661 C1139.65,10.6661 1133.47,16.5568 1133.47,25.5099 C1133.47,33.2443 1137.3,37.0724 1147.74,39.7755 L1154.49,41.4786 C1159.74,42.838 1160.24,42.9786 1161.72,44.1036 C1163.86,45.7443 1165,48.088 1165,50.8536 C1165,53.6974 1163.93,56.0411 1161.8,58.0255 C1159.46,60.0099 1157.11,60.7911 1153.21,60.7911 C1147.96,60.7911 1144.19,59.1661 1140.86,55.463 C1137.88,52.1974 1136.38,48.7911 1135.32,43.3224 L1132.27,43.3224 L1132.55,63.5568 L1135.32,63.5568 L1138.52,58.7286 C1143.27,62.6349 1147.18,64.0568 1153.43,64.0568 C1163.86,64.0568 1170.54,57.9474 1170.54,48.4318 C1170.54,43.963 1169.11,40.2755 1166.27,37.5724 C1164.36,35.7286 1161.58,34.5255 1155.91,33.1036 L1148.32,31.1818 C1141.99,29.5568 1139,26.7911 1139,22.4474 C1139,17.4786 1143.05,14.0724 1149.1,14.0724 C1154.07,14.0724 1158.11,16.213 1160.94,20.2599 C1163,23.1661 1164.36,26.1505 1165.21,29.7599 L1168.27,29.7599 L1167.41,11.3068 M1205.74,40.1349 C1205.74,35.6661 1204.96,33.3849 1202.9,31.6818 C1200.55,29.7599 1197.08,28.838 1192.54,28.838 C1184.5,28.838 1178.69,32.6036 1178.69,37.7911 C1178.69,40.4161 1180.32,42.1193 1182.8,42.1193 C1185.08,42.1193 1186.65,40.6349 1186.65,38.4943 C1186.65,37.5724 1186.29,36.588 1185.57,35.588 C1185.15,35.088 1185.08,34.9474 1185.08,34.588 C1185.08,33.1818 1187.91,31.9005 1191.32,31.9005 C1193.6,31.9005 1196.08,32.6036 1197.22,33.6661 C1198.57,34.8068 1199.07,36.5099 1199.07,39.713 L1199.07,42.4786 C1191.68,43.7599 1189.33,44.3224 1185.86,45.6661 C1179.68,47.9474 1176.77,51.213 1176.77,55.7599 C1176.77,60.8693 1180.74,64.0568 1187.07,64.0568 C1191.96,64.0568 1196.36,62.0724 1199.41,58.4474 C1200.55,62.0724 1202.33,63.4943 1205.66,63.4943 C1208.86,63.4943 1212.19,61.4318 1212.19,59.3693 C1212.19,58.8693 1211.91,58.5255 1211.49,58.5255 C1211.21,58.5255 1210.93,58.588 1210.43,58.8068 C1209.43,59.2286 1209,59.3068 1208.44,59.3068 C1206.44,59.3068 1205.74,58.0255 1205.74,54.4005 L1205.74,40.1349 M1199.07,48.7911 C1199.07,53.0568 1198.85,54.0411 1197.65,55.9005 C1195.86,58.5255 1192.68,60.2911 1189.55,60.2911 C1186.29,60.2911 1183.94,57.9474 1183.94,54.7599 C1183.94,51.7755 1185.43,49.6505 1188.55,48.1505 C1190.75,47.1661 1193.52,46.4474 1199.07,45.5255 L1199.07,48.7911 M1224.43,29.9161 L1224.43,15.8536 L1221.5,15.8536 C1220.8,25.088 1217.68,29.7599 1211.93,30.1974 L1211.93,32.963 L1217.74,32.963 L1217.74,51.0724 C1217.74,56.0411 1217.88,57.8068 1218.6,59.4474 C1219.74,62.4318 1222.57,64.0568 1226.69,64.0568 C1233.08,64.0568 1237.19,59.2286 1237.19,51.713 C1237.19,51.2755 1237.19,50.7755 1237.13,50.0724 L1234.15,50.0724 C1233.93,56.463 1232.08,59.7286 1228.61,59.7286 C1226.97,59.7286 1225.55,58.8693 1225.05,57.6661 C1224.63,56.6818 1224.43,54.9005 1224.43,52.338 L1224.43,32.963 L1234.85,32.963 L1234.85,29.9161 L1224.43,29.9161 M1268.04,29.9161 L1242.4,29.9161 L1241.77,41.9005 L1244.6,41.9005 C1245.18,35.588 1247.94,32.8849 1253.61,32.963 L1259.8,32.963 L1240.41,60.4318 L1240.41,62.9943 L1268.04,62.9943 L1268.54,50.2911 L1265.69,50.2911 C1264.97,57.2443 1262.21,60.0099 1255.9,59.9474 L1248.65,59.9474 L1268.04,32.463 L1268.04,29.9161 "/>
<path class="StaffText" d="M809.15,240.143 L814.135,240.143 C818.088,240.143 820.166,239.83 821.963,239.002 C825.041,237.502 826.806,234.69 826.806,231.205 C826.806,227.861 825.26,225.315 822.353,223.861 C820.65,222.986 817.916,222.502 814.885,222.502 L799.478,222.502 L799.478,224.565 L800.275,224.565 C802.775,224.611 803.619,224.736 803.963,225.174 C804.228,225.58 804.228,225.658 804.228,227.908 L804.228,248.861 C804.228,251.096 804.228,251.19 803.963,251.58 C803.619,252.018 802.775,252.205 800.275,252.205 L799.478,252.205 L799.478,254.268 L814.26,254.268 L814.26,252.205 L813.119,252.205 C810.603,252.205 809.775,252.018 809.416,251.58 C809.15,251.19 809.15,251.096 809.15,248.861 L809.15,240.143 M809.15,238.08 L809.15,226.815 C809.15,224.783 809.385,224.565 811.838,224.565 L814.666,224.565 C819.228,224.565 821.385,226.721 821.385,231.377 C821.385,235.924 819.15,238.08 814.478,238.08 L809.15,238.08 M835.041,221.83 L826.9,222.315 L826.9,224.205 L829.01,224.205 C830.681,224.252 830.916,224.518 830.916,226.408 L830.916,248.861 L830.916,249.908 L830.916,250.971 C830.869,251.58 830.822,251.846 830.65,252.065 C830.338,252.471 829.494,252.643 827.603,252.69 L827.431,252.69 L827.431,254.268 L838.572,254.268 L838.572,252.69 L838.385,252.69 C835.447,252.596 835.041,252.377 835.041,250.799 L835.041,248.861 L835.041,244.283 C835.041,242.127 835.353,240.143 835.838,239.127 C836.806,237.143 838.744,235.783 840.635,235.783 C841.775,235.783 843.103,236.44 843.713,237.33 C844.416,238.299 844.728,239.611 844.728,241.768 L844.728,248.861 L844.728,250.971 C844.681,251.58 844.635,251.846 844.463,252.065 C844.15,252.471 843.275,252.643 841.385,252.69 L841.213,252.69 L841.213,254.268 L852.338,254.268 L852.338,252.69 L852.166,252.69 C849.26,252.596 848.869,252.377 848.869,250.799 L848.869,248.861 L848.869,241.94 C848.869,238.783 848.728,237.986 847.931,236.486 C846.838,234.33 844.635,233.096 841.994,233.096 C839.135,233.096 837.025,234.377 835.041,237.33 L835.041,221.83 M861.963,233.768 L854.166,234.252 L854.166,236.143 L855.978,236.143 C857.65,236.174 857.869,236.44 857.869,238.33 L857.869,248.861 L857.869,250.924 C857.822,251.58 857.775,251.846 857.603,252.065 C857.291,252.471 856.416,252.643 854.525,252.69 L854.338,252.69 L854.338,254.268 L866.088,254.268 L866.088,252.69 L865.306,252.69 C862.353,252.596 861.963,252.377 861.963,250.799 L861.963,248.861 L861.963,248.408 C861.994,241.018 864.635,235.393 868.072,235.205 C867.463,235.924 867.275,236.361 867.275,237.19 C867.275,238.596 868.291,239.611 869.697,239.611 C871.338,239.611 872.385,238.424 872.385,236.658 C872.385,234.502 870.885,233.096 868.556,233.096 C865.791,233.096 863.416,235.299 861.963,239.221 L861.963,233.768 M893.135,240.096 C893.135,237.33 892.65,235.924 891.369,234.861 C889.916,233.674 887.76,233.096 884.947,233.096 C879.978,233.096 876.369,235.44 876.369,238.643 C876.369,240.268 877.385,241.33 878.916,241.33 C880.322,241.33 881.291,240.408 881.291,239.08 C881.291,238.518 881.072,237.893 880.635,237.283 C880.369,236.971 880.322,236.893 880.322,236.658 C880.322,235.783 882.088,234.986 884.197,234.986 C885.603,234.986 887.15,235.44 887.853,236.096 C888.697,236.799 888.994,237.846 888.994,239.83 L888.994,241.549 C884.416,242.346 882.963,242.69 880.806,243.533 C876.978,244.94 875.181,246.955 875.181,249.783 C875.181,252.955 877.65,254.924 881.556,254.924 C884.603,254.924 887.322,253.69 889.213,251.455 C889.916,253.69 891.025,254.58 893.088,254.58 C895.072,254.58 897.135,253.299 897.135,252.018 C897.135,251.721 896.963,251.502 896.697,251.502 C896.525,251.502 896.353,251.533 896.041,251.674 C895.416,251.94 895.166,251.986 894.806,251.986 C893.572,251.986 893.135,251.19 893.135,248.94 L893.135,240.096 M888.994,245.471 C888.994,248.111 888.869,248.721 888.119,249.861 C887.025,251.502 885.041,252.596 883.103,252.596 C881.072,252.596 879.619,251.143 879.619,249.158 C879.619,247.315 880.556,246.002 882.478,245.065 C883.853,244.455 885.572,244.018 888.994,243.44 L888.994,245.471 M914.4,233.283 L912.869,233.283 L911.588,234.861 C910.01,233.627 908.416,233.096 906.228,233.096 C902.353,233.096 899.791,235.611 899.791,239.486 C899.791,241.205 900.369,242.643 901.338,243.533 C902.353,244.455 903.353,244.893 905.994,245.518 L908.338,246.033 C911.806,246.877 913.041,247.752 913.041,249.518 C913.041,251.58 911.244,253.033 908.681,253.033 C904.947,253.033 902.306,250.658 901.244,246.252 L899.494,246.252 L899.494,254.58 L901.025,254.58 L902.572,252.768 C904.369,254.221 906.353,254.924 908.603,254.924 C912.916,254.924 915.775,252.236 915.775,248.158 C915.775,246.221 915.15,244.721 913.916,243.705 C912.869,242.783 911.978,242.424 909.306,241.861 L907.103,241.377 C904.681,240.846 904.681,240.846 903.885,240.408 C902.916,239.971 902.353,239.049 902.353,238.08 C902.353,236.268 904.025,235.033 906.447,235.033 C908.119,235.033 909.478,235.611 910.713,236.799 C911.681,237.768 912.166,238.643 912.869,240.674 L914.4,240.674 L914.4,233.283 M937.713,244.361 C937.744,237.768 934.01,233.096 928.635,233.096 C923.01,233.096 918.791,237.986 918.791,244.58 C918.791,250.799 922.791,254.924 928.728,254.924 C932.947,254.924 935.9,252.861 937.713,248.674 L936.166,247.846 C934.369,251.236 932.51,252.549 929.572,252.549 C927.322,252.549 925.697,251.627 924.556,249.643 C923.76,248.33 923.4,246.783 923.447,244.361 L937.713,244.361 M923.494,242.471 C923.494,241.111 923.666,240.143 924.103,238.908 C925.041,236.268 926.447,234.986 928.603,234.986 C931.244,234.986 932.994,237.33 932.994,240.893 C932.994,242.127 932.603,242.471 931.197,242.471 L923.494,242.471 M948.041,233.768 L940.431,234.252 L940.431,236.143 L942.01,236.143 C943.681,236.174 943.916,236.44 943.916,238.33 L943.916,248.861 L943.916,249.908 L943.916,250.924 C943.869,251.58 943.822,251.846 943.65,252.065 C943.338,252.471 942.494,252.643 940.603,252.69 L940.431,252.69 L940.431,254.268 L951.572,254.268 L951.572,252.69 L951.385,252.69 C948.447,252.596 948.041,252.377 948.041,250.799 L948.041,248.861 L948.041,244.283 C948.041,242.127 948.353,240.143 948.838,239.127 C949.76,237.143 951.744,235.783 953.635,235.783 C954.775,235.783 956.103,236.408 956.76,237.33 C957.416,238.299 957.728,239.611 957.728,241.721 L957.728,248.861 L957.728,250.924 C957.681,251.58 957.635,251.846 957.463,252.065 C957.15,252.471 956.275,252.643 954.385,252.69 L954.213,252.69 L954.213,254.268 L965.338,254.268 L965.338,252.69 L965.166,252.69 C962.26,252.596 961.869,252.377 961.869,250.799 L961.869,248.861 L961.869,241.94 C961.869,238.783 961.728,237.986 960.931,236.486 C959.838,234.377 957.635,233.096 954.994,233.096 C952.135,233.096 949.978,234.424 948.041,237.33 L948.041,233.768 M988.322,248.596 L984.01,237.283 C983.869,236.971 983.822,236.705 983.822,236.361 C983.822,235.565 984.228,235.346 985.681,235.346 L986.728,235.346 L986.728,233.768 L976.869,233.768 L976.869,235.346 L977.619,235.346 C979.025,235.393 979.603,235.736 979.947,236.971 L980.306,238.111 L976.431,248.377 L972.166,237.33 C972.072,237.018 971.994,236.627 971.994,236.361 C971.994,235.611 972.478,235.346 973.791,235.346 L974.588,235.346 L974.588,233.768 L964.9,233.768 L964.9,235.346 L965.697,235.346 C966.931,235.393 967.494,235.924 967.978,237.502 L974.588,254.924 L976.119,254.924 L981.369,241.018 L986.728,254.924 L988.088,254.924 L994.26,238.69 C995.228,236.096 995.885,235.393 997.51,235.346 L997.822,235.346 L997.822,233.768 L989.51,233.768 L989.51,235.346 L990.244,235.346 C991.791,235.346 992.416,235.783 992.416,236.971 C992.416,237.408 992.275,237.986 992.056,238.565 L988.322,248.596 M1008.31,233.768 L1000.04,234.252 L1000.04,236.143 L1002.28,236.143 C1003.95,236.174 1004.17,236.44 1004.17,238.33 L1004.17,248.861 L1004.17,250.924 C1004.13,251.58 1004.09,251.846 1003.92,252.065 C1003.6,252.471 1002.76,252.643 1000.87,252.69 L1000.56,252.69 L1000.56,254.268 L1011.96,254.268 L1011.96,252.69 L1011.65,252.69 C1008.71,252.596 1008.31,252.377 1008.31,250.799 L1008.31,248.861 L1008.31,233.768 M1006.24,222.799 C1004.84,222.799 1003.68,223.94 1003.68,225.361 C1003.68,226.768 1004.84,227.908 1006.2,227.908 C1007.65,227.908 1008.79,226.768 1008.79,225.361 C1008.79,223.94 1007.65,222.799 1006.24,222.799 M1033.71,244.361 C1033.74,237.768 1030.01,233.096 1024.63,233.096 C1019.01,233.096 1014.79,237.986 1014.79,244.58 C1014.79,250.799 1018.79,254.924 1024.73,254.924 C1028.95,254.924 1031.9,252.861 1033.71,248.674 L1032.17,247.846 C1030.37,251.236 1028.51,252.549 1025.57,252.549 C1023.32,252.549 1021.7,251.627 1020.56,249.643 C1019.76,248.33 1019.4,246.783 1019.45,244.361 L1033.71,244.361 M1019.49,242.471 C1019.49,241.111 1019.67,240.143 1020.1,238.908 C1021.04,236.268 1022.45,234.986 1024.6,234.986 C1027.24,234.986 1028.99,237.33 1028.99,240.893 C1028.99,242.127 1028.6,242.471 1027.2,242.471 L1019.49,242.471 M1051.96,254.58 L1059.62,254.268 L1059.62,252.377 L1058.84,252.377 C1056.32,252.236 1056.1,251.986 1056.1,249.158 L1056.1,221.83 L1047.48,222.315 L1047.48,224.205 L1050.07,224.205 C1051.74,224.252 1051.96,224.518 1051.96,226.408 L1051.96,236.361 C1050.34,234.111 1048.45,233.096 1045.9,233.096 C1040.92,233.096 1037.13,237.893 1037.13,244.236 C1037.13,250.486 1040.79,254.924 1045.9,254.924 C1048.67,254.924 1050.56,253.736 1051.96,251.096 L1051.96,254.58 M1046.78,235.471 C1048.57,235.471 1050.29,236.799 1051.09,238.815 C1051.67,240.143 1051.92,241.94 1051.92,244.096 C1051.92,249.252 1049.9,252.549 1046.73,252.549 C1043.6,252.549 1041.76,249.643 1041.76,244.768 C1041.76,242.127 1042.03,240.143 1042.59,238.69 C1043.34,236.705 1044.96,235.471 1046.78,235.471 M1080.71,244.361 C1080.74,237.768 1077.01,233.096 1071.63,233.096 C1066.01,233.096 1061.79,237.986 1061.79,244.58 C1061.79,250.799 1065.79,254.924 1071.73,254.924 C1075.95,254.924 1078.9,252.861 1080.71,248.674 L1079.17,247.846 C1077.37,251.236 1075.51,252.549 1072.57,252.549 C1070.32,252.549 1068.7,251.627 1067.56,249.643 C1066.76,248.33 1066.4,246.783 1066.45,244.361 L1080.71,244.361 M1066.49,242.471 C1066.49,241.111 1066.67,240.143 1067.1,238.908 C1068.04,236.268 1069.45,234.986 1071.6,234.986 C1074.24,234.986 1075.99,237.33 1075.99,240.893 C1075.99,242.127 1075.6,242.471 1074.2,242.471 L1066.49,242.471 M1090.96,233.768 L1083.17,234.252 L1083.17,236.143 L1084.98,236.143 C1086.65,236.174 1086.87,236.44 1086.87,238.33 L1086.87,248.861 L1086.87,250.924 C1086.82,251.58 1086.78,251.846 1086.6,252.065 C1086.29,252.471 1085.42,252.643 1083.53,252.69 L1083.34,252.69 L1083.34,254.268 L1095.09,254.268 L1095.09,252.69 L1094.31,252.69 C1091.35,252.596 1090.96,252.377 1090.96,250.799 L1090.96,248.861 L1090.96,248.408 C1090.99,241.018 1093.63,235.393 1097.07,235.205 C1096.46,235.924 1096.28,236.361 1096.28,237.19 C1096.28,238.596 1097.29,239.611 1098.7,239.611 C1100.34,239.611 1101.38,238.424 1101.38,236.658 C1101.38,234.502 1099.88,233.096 1097.56,233.096 C1094.79,233.096 1092.42,235.299 1090.96,239.221 L1090.96,233.768 M1110.04,221.83 L1101.9,222.315 L1101.9,224.205 L1104.01,224.205 C1105.68,224.252 1105.92,224.518 1105.92,226.408 L1105.92,248.861 L1105.92,249.908 L1105.92,250.971 C1105.87,251.58 1105.82,251.846 1105.65,252.065 C1105.34,252.471 1104.49,252.643 1102.6,252.69 L1102.43,252.69 L1102.43,254.268 L1113.57,254.268 L1113.57,252.69 L1113.38,252.69 C1110.45,252.596 1110.04,252.377 1110.04,250.799 L1110.04,248.861 L1110.04,244.283 C1110.04,242.127 1110.35,240.143 1110.84,239.127 C1111.81,237.143 1113.74,235.783 1115.63,235.783 C1116.78,235.783 1118.1,236.44 1118.71,237.33 C1119.42,238.299 1119.73,239.611 1119.73,241.768 L1119.73,248.861 L1119.73,250.971 C1119.68,251.58 1119.63,251.846 1119.46,252.065 C1119.15,252.471 1118.28,252.643 1116.38,252.69 L1116.21,252.69 L1116.21,254.268 L1127.34,254.268 L1127.34,252.69 L1127.17,252.69 C1124.26,252.596 1123.87,252.377 1123.87,250.799 L1123.87,248.861 L1123.87,241.94 C1123.87,238.783 1123.73,237.986 1122.93,236.486 C1121.84,234.33 1119.63,233.096 1116.99,233.096 C1114.13,233.096 1112.03,234.377 1110.04,237.33 L1110.04,221.83 M1139.34,233.096 C1133.92,233.096 1129.74,237.893 1129.74,244.065 C1129.74,250.08 1133.96,254.924 1139.24,254.924 C1144.53,254.924 1148.74,250.08 1148.74,244.018 C1148.74,237.986 1144.53,233.096 1139.34,233.096 M1139.34,234.986 C1142.42,234.986 1144.13,238.205 1144.13,244.018 C1144.13,249.861 1142.42,253.033 1139.24,253.033 C1136.07,253.033 1134.35,249.861 1134.35,244.065 C1134.35,238.08 1136.04,234.986 1139.34,234.986 M1159.23,221.83 L1151.09,222.315 L1151.09,224.205 L1153.24,224.205 C1154.87,224.252 1155.09,224.518 1155.09,226.408 L1155.09,248.861 L1155.09,250.924 C1155.04,251.58 1154.99,251.846 1154.82,252.065 C1154.51,252.471 1153.68,252.643 1151.79,252.69 L1151.48,252.69 L1151.48,254.268 L1162.87,254.268 L1162.87,252.69 L1162.57,252.69 C1159.62,252.596 1159.23,252.377 1159.23,250.799 L1159.23,248.861 L1159.23,221.83 M1182.37,254.58 L1190.38,254.268 L1190.38,252.377 L1189.29,252.377 C1186.73,252.283 1186.51,252.018 1186.51,249.158 L1186.51,233.768 L1178.24,234.252 L1178.24,236.143 L1180.48,236.143 C1182.15,236.174 1182.37,236.44 1182.37,238.33 L1182.37,243.752 C1182.37,246.252 1182.1,247.752 1181.45,249.158 C1180.53,251.143 1178.76,252.236 1176.6,252.236 C1175.24,252.236 1174.1,251.752 1173.53,250.877 C1172.96,250.049 1172.87,249.596 1172.87,247.19 L1172.87,233.768 L1165.17,234.252 L1165.17,236.143 L1166.84,236.143 C1168.51,236.174 1168.73,236.44 1168.73,238.33 L1168.73,247.846 C1168.73,250.08 1168.92,251.096 1169.57,252.111 C1170.76,253.908 1172.87,254.924 1175.51,254.924 C1178.42,254.924 1180.43,253.736 1182.37,250.924 L1182.37,254.58 M1200.04,233.768 L1192.43,234.252 L1192.43,236.143 L1194.01,236.143 C1195.68,236.174 1195.92,236.44 1195.92,238.33 L1195.92,248.861 L1195.92,249.908 L1195.92,250.924 C1195.87,251.58 1195.82,251.846 1195.65,252.065 C1195.34,252.471 1194.49,252.643 1192.6,252.69 L1192.43,252.69 L1192.43,254.268 L1203.57,254.268 L1203.57,252.69 L1203.38,252.69 C1200.45,252.596 1200.04,252.377 1200.04,250.799 L1200.04,248.861 L1200.04,244.283 C1200.04,242.127 1200.35,240.143 1200.84,239.127 C1201.76,237.143 1203.74,235.783 1205.63,235.783 C1206.78,235.783 1208.1,236.408 1208.76,237.33 C1209.42,238.299 1209.73,239.611 1209.73,241.721 L1209.73,248.861 L1209.73,250.924 C1209.68,251.58 1209.63,251.846 1209.46,252.065 C1209.15,252.471 1208.28,252.643 1206.38,252.69 L1206.21,252.69 L1206.21,254.268 L1217.34,254.268 L1217.34,252.69 L1217.17,252.69 C1214.26,252.596 1213.87,252.377 1213.87,250.799 L1213.87,248.861 L1213.87,241.94 C1213.87,238.783 1213.73,237.986 1212.93,236.486 C1211.84,234.377 1209.63,233.096 1206.99,233.096 C1204.13,233.096 1201.98,234.424 1200.04,237.33 L1200.04,233.768 M1226.87,251.018 C1224.45,250.971 1224.32,250.924 1223.79,250.611 C1223.48,250.44 1223.26,249.955 1223.26,249.471 C1223.26,248.158 1224.45,247.58 1227.4,247.486 C1231.54,247.408 1232.2,247.315 1233.7,246.658 C1236.34,245.471 1237.78,243.174 1237.78,240.268 C1237.78,238.518 1237.38,237.408 1236.2,235.955 C1236.95,235.174 1237.34,234.908 1237.7,234.908 C1237.92,234.908 1238.04,235.033 1238.13,235.518 C1238.31,236.58 1239.01,237.143 1240.12,237.143 C1241.26,237.143 1242.09,236.221 1242.09,235.033 C1242.09,233.533 1240.9,232.486 1239.2,232.486 C1237.78,232.486 1236.99,232.924 1234.96,234.768 C1233.12,233.533 1231.71,233.096 1229.51,233.096 C1224.28,233.096 1220.84,236.002 1220.84,240.408 C1220.84,243.002 1222.24,245.205 1224.54,246.299 C1221.59,246.955 1220.35,248.283 1220.35,250.705 C1220.35,252.643 1221.24,253.783 1223.31,254.486 C1220.57,255.502 1219.26,256.861 1219.26,258.674 C1219.26,259.986 1220.13,261.221 1221.54,261.971 C1223.26,262.846 1225.37,263.205 1228.54,263.205 C1235.88,263.205 1239.54,260.861 1239.54,256.252 C1239.54,254.049 1238.53,252.283 1236.95,251.627 C1235.76,251.19 1234.35,251.018 1231.35,251.018 L1226.87,251.018 M1229.46,234.986 C1232.2,234.986 1233.73,236.893 1233.73,240.315 C1233.73,243.752 1232.06,245.815 1229.29,245.815 C1226.56,245.815 1224.84,243.752 1224.84,240.455 C1224.84,236.971 1226.51,234.986 1229.46,234.986 M1229.07,254.799 C1232.73,254.799 1232.98,254.799 1233.6,254.877 C1235.4,255.065 1236.46,256.033 1236.46,257.44 C1236.46,259.94 1233.6,261.393 1228.71,261.393 C1224.98,261.393 1222.92,260.299 1222.92,258.315 C1222.92,256.861 1223.7,255.893 1225.81,254.799 L1229.07,254.799 "/>
<path class="StaffText" d="M1720.22,133.314 L1711.16,133.314 L1711.16,135.377 L1712.25,135.377 C1714.75,135.47 1715.59,135.767 1716.3,136.83 L1716.3,155.533 C1716.3,161.517 1715.47,162.798 1711.19,163.017 L1711.19,165.08 L1723.73,165.08 L1723.73,163.017 C1719.52,162.798 1718.67,161.517 1718.67,155.533 L1718.67,139.205 L1738.3,165.689 L1740.16,165.689 L1740.16,142.861 C1740.16,136.877 1740.98,135.595 1745.25,135.377 L1745.25,133.314 L1732.72,133.314 L1732.72,135.377 C1736.94,135.595 1737.77,136.83 1737.77,142.861 L1737.77,156.673 L1720.22,133.314 M1765.2,150.908 C1765.2,148.142 1764.72,146.736 1763.44,145.673 C1761.98,144.486 1759.83,143.908 1757.02,143.908 C1752.05,143.908 1748.44,146.252 1748.44,149.455 C1748.44,151.08 1749.45,152.142 1750.98,152.142 C1752.39,152.142 1753.36,151.22 1753.36,149.892 C1753.36,149.33 1753.14,148.705 1752.7,148.095 C1752.44,147.783 1752.39,147.705 1752.39,147.47 C1752.39,146.595 1754.16,145.798 1756.27,145.798 C1757.67,145.798 1759.22,146.252 1759.92,146.908 C1760.77,147.611 1761.06,148.658 1761.06,150.642 L1761.06,152.361 C1756.48,153.158 1755.03,153.502 1752.87,154.345 C1749.05,155.752 1747.25,157.767 1747.25,160.595 C1747.25,163.767 1749.72,165.736 1753.62,165.736 C1756.67,165.736 1759.39,164.502 1761.28,162.267 C1761.98,164.502 1763.09,165.392 1765.16,165.392 C1767.14,165.392 1769.2,164.111 1769.2,162.83 C1769.2,162.533 1769.03,162.314 1768.77,162.314 C1768.59,162.314 1768.42,162.345 1768.11,162.486 C1767.48,162.752 1767.23,162.798 1766.87,162.798 C1765.64,162.798 1765.2,162.002 1765.2,159.752 L1765.2,150.908 M1761.06,156.283 C1761.06,158.923 1760.94,159.533 1760.19,160.673 C1759.09,162.314 1757.11,163.408 1755.17,163.408 C1753.14,163.408 1751.69,161.955 1751.69,159.97 C1751.69,158.127 1752.62,156.814 1754.55,155.877 C1755.92,155.267 1757.64,154.83 1761.06,154.252 L1761.06,156.283 M1786.34,158.611 C1784.94,161.783 1783.44,163.048 1781.16,163.048 C1777.62,163.048 1775.42,159.845 1775.42,154.689 C1775.42,149.33 1777.58,145.798 1780.84,145.798 C1782.16,145.798 1783.31,146.423 1783.31,147.127 C1783.31,147.252 1783.27,147.392 1783.05,147.658 C1782.34,148.486 1782.16,148.923 1782.16,149.673 C1782.16,151.127 1783.27,152.142 1784.8,152.142 C1786.39,152.142 1787.48,150.908 1787.48,149.142 C1787.48,146.158 1784.53,143.908 1780.62,143.908 C1774.91,143.908 1770.81,148.58 1770.81,155.173 C1770.81,161.423 1774.55,165.736 1780,165.736 C1783.92,165.736 1786.17,163.939 1788.06,159.267 L1786.34,158.611 M1798.11,132.642 L1789.97,133.127 L1789.97,135.017 L1792.08,135.017 C1793.75,135.064 1793.98,135.33 1793.98,137.22 L1793.98,159.673 L1793.98,160.72 L1793.98,161.783 C1793.94,162.392 1793.89,162.658 1793.72,162.877 C1793.41,163.283 1792.56,163.455 1790.67,163.502 L1790.5,163.502 L1790.5,165.08 L1801.64,165.08 L1801.64,163.502 L1801.45,163.502 C1798.52,163.408 1798.11,163.189 1798.11,161.611 L1798.11,159.673 L1798.11,155.095 C1798.11,152.939 1798.42,150.955 1798.91,149.939 C1799.87,147.955 1801.81,146.595 1803.7,146.595 C1804.84,146.595 1806.17,147.252 1806.78,148.142 C1807.48,149.111 1807.8,150.423 1807.8,152.58 L1807.8,159.673 L1807.8,161.783 C1807.75,162.392 1807.7,162.658 1807.53,162.877 C1807.22,163.283 1806.34,163.455 1804.45,163.502 L1804.28,163.502 L1804.28,165.08 L1815.41,165.08 L1815.41,163.502 L1815.23,163.502 C1812.33,163.408 1811.94,163.189 1811.94,161.611 L1811.94,159.673 L1811.94,152.752 C1811.94,149.595 1811.8,148.798 1811,147.298 C1809.91,145.142 1807.7,143.908 1805.06,143.908 C1802.2,143.908 1800.09,145.189 1798.11,148.142 L1798.11,132.642 M1833.47,144.095 L1831.94,144.095 L1830.66,145.673 C1829.08,144.439 1827.48,143.908 1825.3,143.908 C1821.42,143.908 1818.86,146.423 1818.86,150.298 C1818.86,152.017 1819.44,153.455 1820.41,154.345 C1821.42,155.267 1822.42,155.705 1825.06,156.33 L1827.41,156.845 C1830.87,157.689 1832.11,158.564 1832.11,160.33 C1832.11,162.392 1830.31,163.845 1827.75,163.845 C1824.02,163.845 1821.37,161.47 1820.31,157.064 L1818.56,157.064 L1818.56,165.392 L1820.09,165.392 L1821.64,163.58 C1823.44,165.033 1825.42,165.736 1827.67,165.736 C1831.98,165.736 1834.84,163.048 1834.84,158.97 C1834.84,157.033 1834.22,155.533 1832.98,154.517 C1831.94,153.595 1831.05,153.236 1828.37,152.673 L1826.17,152.189 C1823.75,151.658 1823.75,151.658 1822.95,151.22 C1821.98,150.783 1821.42,149.861 1821.42,148.892 C1821.42,147.08 1823.09,145.845 1825.52,145.845 C1827.19,145.845 1828.55,146.423 1829.78,147.611 C1830.75,148.58 1831.23,149.455 1831.94,151.486 L1833.47,151.486 L1833.47,144.095 M1856.2,150.908 C1856.2,148.142 1855.72,146.736 1854.44,145.673 C1852.98,144.486 1850.83,143.908 1848.02,143.908 C1843.05,143.908 1839.44,146.252 1839.44,149.455 C1839.44,151.08 1840.45,152.142 1841.98,152.142 C1843.39,152.142 1844.36,151.22 1844.36,149.892 C1844.36,149.33 1844.14,148.705 1843.7,148.095 C1843.44,147.783 1843.39,147.705 1843.39,147.47 C1843.39,146.595 1845.16,145.798 1847.27,145.798 C1848.67,145.798 1850.22,146.252 1850.92,146.908 C1851.77,147.611 1852.06,148.658 1852.06,150.642 L1852.06,152.361 C1847.48,153.158 1846.03,153.502 1843.87,154.345 C1840.05,155.752 1838.25,157.767 1838.25,160.595 C1838.25,163.767 1840.72,165.736 1844.62,165.736 C1847.67,165.736 1850.39,164.502 1852.28,162.267 C1852.98,164.502 1854.09,165.392 1856.16,165.392 C1858.14,165.392 1860.2,164.111 1860.2,162.83 C1860.2,162.533 1860.03,162.314 1859.77,162.314 C1859.59,162.314 1859.42,162.345 1859.11,162.486 C1858.48,162.752 1858.23,162.798 1857.87,162.798 C1856.64,162.798 1856.2,162.002 1856.2,159.752 L1856.2,150.908 M1852.06,156.283 C1852.06,158.923 1851.94,159.533 1851.19,160.673 C1850.09,162.314 1848.11,163.408 1846.17,163.408 C1844.14,163.408 1842.69,161.955 1842.69,159.97 C1842.69,158.127 1843.62,156.814 1845.55,155.877 C1846.92,155.267 1848.64,154.83 1852.06,154.252 L1852.06,156.283 M1867.84,144.58 L1867.84,135.861 L1866.05,135.861 C1865.61,141.58 1863.67,144.486 1860.11,144.752 L1860.11,146.47 L1863.72,146.47 L1863.72,157.689 C1863.72,160.767 1863.8,161.861 1864.23,162.877 C1864.95,164.72 1866.7,165.736 1869.27,165.736 C1873.22,165.736 1875.77,162.752 1875.77,158.08 C1875.77,157.814 1875.77,157.517 1875.73,157.064 L1873.87,157.064 C1873.75,161.033 1872.61,163.048 1870.45,163.048 C1869.44,163.048 1868.55,162.533 1868.25,161.783 C1867.98,161.158 1867.84,160.064 1867.84,158.486 L1867.84,146.47 L1874.31,146.47 L1874.31,144.58 L1867.84,144.58 M1895.14,144.58 L1879.27,144.58 L1878.86,152.017 L1880.62,152.017 C1880.98,148.095 1882.69,146.423 1886.22,146.47 L1890.05,146.47 L1878.03,163.502 L1878.03,165.08 L1895.14,165.08 L1895.45,157.205 L1893.69,157.205 C1893.25,161.517 1891.53,163.236 1887.62,163.189 L1883.14,163.189 L1895.14,146.158 L1895.14,144.58 "/>
<path class="Harmony" d="M223.125,740.252 L237.312,740.252 L237.312,739.33 L236.109,739.33 C235.812,739.33 235.5,739.299 235.203,739.221 C234.89,739.158 234.593,739.049 234.296,738.955 C234.015,738.861 233.765,738.736 233.562,738.596 C233.343,738.439 233.203,738.33 233.125,738.174 C232.937,737.877 232.812,737.439 232.718,736.861 C232.625,736.268 232.562,735.439 232.562,734.361 L232.562,712.986 C232.562,712.002 232.625,711.205 232.734,710.564 C232.843,709.955 232.984,709.518 233.171,709.221 C233.812,708.439 234.796,708.018 236.109,708.018 L237.312,708.018 L237.312,707.143 L223.125,707.143 L223.125,708.018 L224.312,708.018 C224.875,708.018 225.437,708.143 226,708.361 C226.531,708.58 226.984,708.877 227.296,709.268 C227.421,709.424 227.515,709.58 227.593,709.783 C227.656,709.971 227.703,710.221 227.765,710.518 C227.781,710.814 227.812,711.143 227.812,711.533 C227.812,711.924 227.828,712.424 227.828,712.986 L227.828,734.361 C227.828,736.424 227.64,737.689 227.25,738.127 C226.906,738.564 226.515,738.861 226.046,739.049 C225.562,739.252 225,739.33 224.312,739.33 L223.125,739.33 L223.125,740.252 "/>
<path class="Harmony" d="M534.156,708.018 L534.156,707.143 L523.969,707.143 L523.969,708.018 C524.562,708.127 525.047,708.252 525.437,708.361 C525.828,708.486 526.125,708.611 526.359,708.736 C526.609,708.877 526.781,709.002 526.922,709.127 C527.047,709.268 527.14,709.393 527.25,709.533 C527.484,709.971 527.531,710.596 527.344,711.314 C527.14,712.08 526.812,713.049 526.344,714.268 L518.531,733.518 L510.062,714.08 C509.5,712.814 509.156,711.814 509.015,711.033 C508.859,710.252 508.953,709.658 509.25,709.221 C509.453,708.877 509.812,708.643 510.344,708.439 C510.89,708.252 511.64,708.127 512.625,708.018 L512.625,707.143 L499.078,707.143 L499.078,708.018 C499.859,708.096 500.469,708.221 500.953,708.361 C501.422,708.518 501.828,708.736 502.219,709.033 C502.375,709.143 502.484,709.268 502.64,709.361 C502.765,709.471 502.906,709.643 503.078,709.861 C503.219,710.08 503.422,710.393 503.64,710.783 C503.828,711.174 504.094,711.736 504.39,712.439 L516.75,741.033 L517.672,741.033 L529.203,712.783 C529.875,711.127 530.656,709.908 531.515,709.127 C531.781,708.83 532.156,708.611 532.609,708.408 C533.062,708.252 533.562,708.127 534.156,708.018"/>
<path class="Harmony" d="M809.938,708.018 L809.938,707.143 L799.75,707.143 L799.75,708.018 C800.344,708.127 800.828,708.252 801.219,708.361 C801.609,708.486 801.906,708.611 802.141,708.736 C802.391,708.877 802.563,709.002 802.703,709.127 C802.828,709.268 802.922,709.393 803.031,709.533 C803.266,709.971 803.313,710.596 803.125,711.314 C802.922,712.08 802.594,713.049 802.125,714.268 L794.313,733.518 L785.844,714.08 C785.281,712.814 784.938,711.814 784.797,711.033 C784.641,710.252 784.734,709.658 785.031,709.221 C785.234,708.877 785.594,708.643 786.125,708.439 C786.672,708.252 787.422,708.127 788.406,708.018 L788.406,707.143 L774.859,707.143 L774.859,708.018 C775.641,708.096 776.25,708.221 776.734,708.361 C777.203,708.518 777.609,708.736 778,709.033 C778.156,709.143 778.266,709.268 778.422,709.361 C778.547,709.471 778.688,709.643 778.859,709.861 C779,710.08 779.203,710.393 779.422,710.783 C779.609,711.174 779.875,711.736 780.172,712.439 L792.531,741.033 L793.453,741.033 L804.984,712.783 C805.656,711.127 806.438,709.908 807.297,709.127 C807.563,708.83 807.938,708.611 808.391,708.408 C808.844,708.252 809.344,708.127 809.938,708.018"/>
<path class="Harmony" d="M1054.89,740.252 L1069.08,740.252 L1069.08,739.33 L1067.88,739.33 C1067.58,739.33 1067.27,739.299 1066.97,739.221 C1066.66,739.158 1066.36,739.049 1066.06,738.955 C1065.78,738.861 1065.53,738.736 1065.33,738.596 C1065.11,738.439 1064.97,738.33 1064.89,738.174 C1064.7,737.877 1064.58,737.439 1064.48,736.861 C1064.39,736.268 1064.33,735.439 1064.33,734.361 L1064.33,712.986 C1064.33,712.002 1064.39,711.205 1064.5,710.564 C1064.61,709.955 1064.75,709.518 1064.94,709.221 C1065.58,708.439 1066.56,708.018 1067.88,708.018 L1069.08,708.018 L1069.08,707.143 L1054.89,707.143 L1054.89,708.018 L1056.08,708.018 C1056.64,708.018 1057.2,708.143 1057.77,708.361 C1058.3,708.58 1058.75,708.877 1059.06,709.268 C1059.19,709.424 1059.28,709.58 1059.36,709.783 C1059.42,709.971 1059.47,710.221 1059.53,710.518 C1059.55,710.814 1059.58,711.143 1059.58,711.533 C1059.58,711.924 1059.59,712.424 1059.59,712.986 L1059.59,734.361 C1059.59,736.424 1059.41,737.689 1059.02,738.127 C1058.67,738.564 1058.28,738.861 1057.81,739.049 C1057.33,739.252 1056.77,739.33 1056.08,739.33 L1054.89,739.33 L1054.89,740.252 "/>
<path class="Harmony" d="M1325.15,740.252 L1339.33,740.252 L1339.33,739.33 L1338.13,739.33 C1337.83,739.33 1337.52,739.299 1337.22,739.221 C1336.91,739.158 1336.61,739.049 1336.32,738.955 C1336.04,738.861 1335.79,738.736 1335.58,738.596 C1335.36,738.439 1335.22,738.33 1335.15,738.174 C1334.96,737.877 1334.83,737.439 1334.74,736.861 C1334.65,736.268 1334.58,735.439 1334.58,734.361 L1334.58,712.986 C1334.58,712.002 1334.65,711.205 1334.75,710.564 C1334.86,709.955 1335,709.518 1335.19,709.221 C1335.83,708.439 1336.82,708.018 1338.13,708.018 L1339.33,708.018 L1339.33,707.143 L1325.15,707.143 L1325.15,708.018 L1326.33,708.018 C1326.9,708.018 1327.46,708.143 1328.02,708.361 C1328.55,708.58 1329,708.877 1329.32,709.268 C1329.44,709.424 1329.54,709.58 1329.61,709.783 C1329.68,709.971 1329.72,710.221 1329.79,710.518 C1329.8,710.814 1329.83,711.143 1329.83,711.533 C1329.83,711.924 1329.85,712.424 1329.85,712.986 L1329.85,734.361 C1329.85,736.424 1329.66,737.689 1329.27,738.127 C1328.93,738.564 1328.54,738.861 1328.07,739.049 C1327.58,739.252 1327.02,739.33 1326.33,739.33 L1325.15,739.33 L1325.15,740.252 M1376.4,708.018 L1376.4,707.143 L1366.21,707.143 L1366.21,708.018 C1366.8,708.127 1367.29,708.252 1367.68,708.361 C1368.07,708.486 1368.36,708.611 1368.6,708.736 C1368.85,708.877 1369.02,709.002 1369.16,709.127 C1369.29,709.268 1369.38,709.393 1369.49,709.533 C1369.72,709.971 1369.77,710.596 1369.58,711.314 C1369.38,712.08 1369.05,713.049 1368.58,714.268 L1360.77,733.518 L1352.3,714.08 C1351.74,712.814 1351.4,711.814 1351.25,711.033 C1351.1,710.252 1351.19,709.658 1351.49,709.221 C1351.69,708.877 1352.05,708.643 1352.58,708.439 C1353.13,708.252 1353.88,708.127 1354.86,708.018 L1354.86,707.143 L1341.32,707.143 L1341.32,708.018 C1342.1,708.096 1342.71,708.221 1343.19,708.361 C1343.66,708.518 1344.07,708.736 1344.46,709.033 C1344.61,709.143 1344.72,709.268 1344.88,709.361 C1345,709.471 1345.15,709.643 1345.32,709.861 C1345.46,710.08 1345.66,710.393 1345.88,710.783 C1346.07,711.174 1346.33,711.736 1346.63,712.439 L1358.99,741.033 L1359.91,741.033 L1371.44,712.783 C1372.11,711.127 1372.9,709.908 1373.75,709.127 C1374.02,708.83 1374.4,708.611 1374.85,708.408 C1375.3,708.252 1375.8,708.127 1376.4,708.018"/>
<path class="Harmony" d="M1600.93,740.252 L1615.11,740.252 L1615.11,739.33 L1613.91,739.33 C1613.61,739.33 1613.3,739.299 1613,739.221 C1612.69,739.158 1612.4,739.049 1612.1,738.955 C1611.82,738.861 1611.57,738.736 1611.36,738.596 C1611.15,738.439 1611,738.33 1610.93,738.174 C1610.74,737.877 1610.61,737.439 1610.52,736.861 C1610.43,736.268 1610.36,735.439 1610.36,734.361 L1610.36,712.986 C1610.36,712.002 1610.43,711.205 1610.54,710.564 C1610.65,709.955 1610.79,709.518 1610.97,709.221 C1611.61,708.439 1612.6,708.018 1613.91,708.018 L1615.11,708.018 L1615.11,707.143 L1600.93,707.143 L1600.93,708.018 L1602.11,708.018 C1602.68,708.018 1603.24,708.143 1603.8,708.361 C1604.33,708.58 1604.79,708.877 1605.1,709.268 C1605.22,709.424 1605.32,709.58 1605.4,709.783 C1605.46,709.971 1605.5,710.221 1605.57,710.518 C1605.58,710.814 1605.61,711.143 1605.61,711.533 C1605.61,711.924 1605.63,712.424 1605.63,712.986 L1605.63,734.361 C1605.63,736.424 1605.44,737.689 1605.05,738.127 C1604.71,738.564 1604.32,738.861 1603.85,739.049 C1603.36,739.252 1602.8,739.33 1602.11,739.33 L1600.93,739.33 L1600.93,740.252 "/>
<path class="Harmony" d="M1911.96,708.018 L1911.96,707.143 L1901.77,707.143 L1901.77,708.018 C1902.36,708.127 1902.85,708.252 1903.24,708.361 C1903.63,708.486 1903.93,708.611 1904.16,708.736 C1904.41,708.877 1904.58,709.002 1904.72,709.127 C1904.85,709.268 1904.94,709.393 1905.05,709.533 C1905.29,709.971 1905.33,710.596 1905.15,711.314 C1904.94,712.08 1904.61,713.049 1904.15,714.268 L1896.33,733.518 L1887.86,714.08 C1887.3,712.814 1886.96,711.814 1886.82,711.033 C1886.66,710.252 1886.76,709.658 1887.05,709.221 C1887.26,708.877 1887.61,708.643 1888.15,708.439 C1888.69,708.252 1889.44,708.127 1890.43,708.018 L1890.43,707.143 L1876.88,707.143 L1876.88,708.018 C1877.66,708.096 1878.27,708.221 1878.76,708.361 C1879.22,708.518 1879.63,708.736 1880.02,709.033 C1880.18,709.143 1880.29,709.268 1880.44,709.361 C1880.57,709.471 1880.71,709.643 1880.88,709.861 C1881.02,710.08 1881.22,710.393 1881.44,710.783 C1881.63,711.174 1881.9,711.736 1882.19,712.439 L1894.55,741.033 L1895.47,741.033 L1907.01,712.783 C1907.68,711.127 1908.46,709.908 1909.32,709.127 C1909.58,708.83 1909.96,708.611 1910.41,708.408 C1910.86,708.252 1911.36,708.127 1911.96,708.018"/>
<path class="Harmony" d="M2155.81,740.252 L2169.99,740.252 L2169.99,739.33 L2168.79,739.33 C2168.49,739.33 2168.18,739.299 2167.88,739.221 C2167.57,739.158 2167.28,739.049 2166.98,738.955 C2166.7,738.861 2166.45,738.736 2166.24,738.596 C2166.03,738.439 2165.88,738.33 2165.81,738.174 C2165.62,737.877 2165.49,737.439 2165.4,736.861 C2165.31,736.268 2165.24,735.439 2165.24,734.361 L2165.24,712.986 C2165.24,712.002 2165.31,711.205 2165.42,710.564 C2165.53,709.955 2165.67,709.518 2165.85,709.221 C2166.49,708.439 2167.48,708.018 2168.79,708.018 L2169.99,708.018 L2169.99,707.143 L2155.81,707.143 L2155.81,708.018 L2156.99,708.018 C2157.56,708.018 2158.12,708.143 2158.68,708.361 C2159.21,708.58 2159.67,708.877 2159.98,709.268 C2160.1,709.424 2160.2,709.58 2160.28,709.783 C2160.34,709.971 2160.38,710.221 2160.45,710.518 C2160.46,710.814 2160.49,711.143 2160.49,711.533 C2160.49,711.924 2160.51,712.424 2160.51,712.986 L2160.51,734.361 C2160.51,736.424 2160.32,737.689 2159.93,738.127 C2159.59,738.564 2159.2,738.861 2158.73,739.049 C2158.24,739.252 2157.68,739.33 2156.99,739.33 L2155.81,739.33 L2155.81,740.252 "/>
<polyline class="VoltaSegment" fill="none" stroke="#000000" stroke-width="3.54" stroke-linecap="square" stroke-linejoin="bevel" points="175.965,321.377 175.965,272.735"/>
<polyline class="VoltaSegment" fill="none" stroke="#000000" stroke-width="3.54" stroke-linecap="square" stroke-linejoin="bevel" points="175.965,272.735 703.783,272.735"/>
<polyline class="VoltaSegment" fill="none" stroke="#000000" stroke-width="3.54" stroke-linecap="square" stroke-linejoin="bevel" points="703.783,272.735 703.783,321.377"/>
<polyline class="VoltaSegment" fill="none" stroke="#000000" stroke-width="3.54" stroke-linecap="square" stroke-linejoin="bevel" points="178.219,236.58 178.219,187.937"/>
<polyline class="VoltaSegment" fill="none" stroke="#000000" stroke-width="3.54" stroke-linecap="square" stroke-linejoin="bevel" points="178.219,187.937 1278.53,187.937"/>
<polyline class="VoltaSegment" fill="none" stroke="#000000" stroke-width="3.54" stroke-linecap="square" stroke-linejoin="bevel" points="1278.53,187.937 1278.53,236.58"/>
<polyline class="VoltaSegment" fill="none" stroke="#000000" stroke-width="3.54" stroke-linecap="square" stroke-linejoin="bevel" points="178.219,137.083 178.219,88.4409"/>
<polyline class="VoltaSegment" fill="none" stroke="#000000" stroke-width="3.54" stroke-linecap="square" stroke-linejoin="bevel" points="178.219,88.4409 2230.07,88.4409"/>
<polyline class="VoltaSegment" fill="none" stroke="#000000" stroke-width="3.54" stroke-linecap="square" stroke-linejoin="bevel" points="2230.07,88.4409 2230.07,137.083"/>
<polyline class="VoltaSegment" fill="none" stroke="#000000" stroke-width="3.54" stroke-linecap="square" stroke-linejoin="bevel" points="737.913,324.575 737.913,275.932"/>
<polyline class="VoltaSegment" fill="none" stroke="#000000" stroke-width="3.54" stroke-linecap="square" stroke-linejoin="bevel" points="737.913,275.932 1286.9,275.932"/>
<polyline class="VoltaSegment" fill="none" stroke="#000000" stroke-width="3.54" stroke-linecap="square" stroke-linejoin="bevel" points="1286.9,275.932 1286.9,324.575"/>
<polyline class="VoltaSegment" fill="none" stroke="#000000" stroke-width="3.54" stroke-linecap="square" stroke-linejoin="bevel" points="1307.42,328.662 1307.42,280.019"/>
<polyline class="VoltaSegment" fill="none" stroke="#000000" stroke-width="3.54" stroke-linecap="square" stroke-linejoin="bevel" points="1307.42,280.019 1548.86,280.019"/>
<polyline class="VoltaSegment" fill="none" stroke="#000000" stroke-width="3.54" stroke-linecap="square" stroke-linejoin="bevel" points="1548.86,280.019 1548.86,328.662"/>
<polyline class="VoltaSegment" fill="none" stroke="#000000" stroke-width="3.54" stroke-linecap="square" stroke-linejoin="bevel" points="1307.43,236.58 1307.43,187.937"/>
<polyline class="VoltaSegment" fill="none" stroke="#000000" stroke-width="3.54" stroke-linecap="square" stroke-linejoin="bevel" points="1307.43,187.937 2231.8,187.937"/>
<polyline class="VoltaSegment" fill="none" stroke="#000000" stroke-width="3.54" stroke-linecap="square" stroke-linejoin="bevel" points="2231.8,187.937 2231.8,236.58"/>
<polyline class="VoltaSegment" fill="none" stroke="#000000" stroke-width="3.54" stroke-linecap="square" stroke-linejoin="bevel" points="1573.08,326.408 1573.08,277.766"/>
<polyline class="VoltaSegment" fill="none" stroke="#000000" stroke-width="3.54" stroke-linecap="square" stroke-linejoin="bevel" points="1573.08,277.766 1811.03,277.766"/>
<polyline class="VoltaSegment" fill="none" stroke="#000000" stroke-width="3.54" stroke-linecap="square" stroke-linejoin="bevel" points="1811.03,277.766 1811.03,326.408"/>
<polyline class="VoltaSegment" fill="none" stroke="#000000" stroke-width="3.54" stroke-linecap="square" stroke-linejoin="bevel" points="1848.95,326.408 1848.95,277.766"/>
<polyline class="VoltaSegment" fill="none" stroke="#000000" stroke-width="3.54" stroke-linecap="square" stroke-linejoin="bevel" points="1848.95,277.766 2089.15,277.766"/>
<polyline class="VoltaSegment" fill="none" stroke="#000000" stroke-width="3.54" stroke-linecap="square" stroke-linejoin="bevel" points="2089.15,277.766 2089.15,326.408"/>
<polyline class="VoltaSegment" fill="none" stroke="#000000" stroke-width="3.54" stroke-linecap="square" stroke-linejoin="bevel" points="2124.73,326.408 2124.73,277.766"/>
<polyline class="VoltaSegment" fill="none" stroke="#000000" stroke-width="3.54" stroke-linecap="square" stroke-linejoin="bevel" points="2124.73,277.766 2224,277.766"/>
<polyline class="VoltaSegment" fill="none" stroke="#000000" stroke-width="3.54" stroke-linecap="square" stroke-linejoin="bevel" points="2224,277.766 2224,326.408"/>
<polyline class="Bracket" fill="none" stroke="#000000" stroke-width="11.06" stroke-linejoin="bevel" points="24.0551,331.654 24.0551,674.362"/>
<path class="Bracket" transform="matrix(0.884409,0,0,0.884409,18.5414,337.181)" d="M0,-11.7031 L0,0 L12.5,0 C28.5,-3 42.7969,-10.4063 46.7969,-27.1094 C46.9063,-27.5 46.9063,-27.7969 46.9063,-28.1094 C46.9063,-28.9063 46.6094,-29.2969 46.1094,-29.5 C45.2031,-29.5 44.1094,-28.7969 43.6094,-28.1094 C42.6094,-27 30,-13.7969 10.9063,-12.4063 L0.796875,-12.4063 C0.203125,-12.4063 0,-12.2969 0,-11.7031"/>
<path class="Bracket" transform="matrix(0.884409,0,0,0.884409,18.5414,668.835)" d="M0,0 L0,11.7031 C0,12.2969 0.203125,12.4063 0.796875,12.4063 L10.9063,12.4063 C30,13.7969 42.6094,27 43.6094,28.1094 C44.1094,28.7969 45.2031,29.5 46.1094,29.5 C46.6094,29.2969 46.9063,28.9063 46.9063,28.1094 C46.9063,27.7969 46.9063,27.5 46.7969,27.1094 C42.7969,10.4063 28.5,3 12.5,0 L0,0 "/>
</svg>
